<?xml version="1.0" encoding="UTF-8"?>
<svg version="1.1" xmlns="http://www.w3.org/2000/svg" width="299" height="300">
<path d="M0 0 C1.36727737 -0.00160126 1.36727737 -0.00160126 2.76217651 -0.00323486 C17.11792991 0.02104641 30.49572158 1.01998084 44.25 5.4375 C45.30985107 5.75847656 45.30985107 5.75847656 46.39111328 6.0859375 C84.43031007 17.82654218 115.62081259 45.84436008 134.4375 80.4375 C138.18067154 87.58509787 141.09230414 94.9280712 143.6875 102.5625 C144.00549561 103.490625 144.32349121 104.41875 144.65112305 105.375 C149.41904027 120.19312746 150.80995766 134.78055003 150.6875 150.25 C150.68412628 151.08199921 150.68075256 151.91399841 150.67727661 152.77120972 C150.60324752 165.39597036 149.89661272 177.28036769 146.25 189.4375 C146.01925781 190.2634668 145.78851563 191.08943359 145.55078125 191.94042969 C140.41980461 210.10924511 132.30602845 227.7899888 120.25 242.4375 C119.62375732 243.2094873 119.62375732 243.2094873 118.98486328 243.99707031 C99.96299094 267.38226015 76.40670829 284.49279901 47.75 294.25 C46.94498047 294.52787354 46.13996094 294.80574707 45.31054688 295.09204102 C31.47272198 299.59371663 18.02378016 300.95472142 3.56958008 300.88354492 C0.94988061 300.87504019 -1.66762338 300.90392182 -4.28710938 300.93554688 C-41.15687171 301.08884432 -75.92829691 285.23442747 -102.75 260.4375 C-103.56984375 259.68855469 -104.3896875 258.93960937 -105.234375 258.16796875 C-122.90569737 241.27994968 -135.55181285 219.06708363 -143.0625 195.9375 C-143.29283936 195.23979492 -143.52317871 194.54208984 -143.76049805 193.82324219 C-148.12405462 179.61005754 -149.3044808 165.40258616 -149.1875 150.625 C-149.18412628 149.79300079 -149.18075256 148.96100159 -149.17727661 148.10379028 C-149.10324752 135.47902964 -148.39661272 123.59463231 -144.75 111.4375 C-144.51925781 110.6115332 -144.28851563 109.78556641 -144.05078125 108.93457031 C-133.50824625 71.60339811 -108.4930692 38.83174461 -74.75 19.4375 C-60.69327339 11.74205589 -46.38867643 5.96987897 -30.75 2.4375 C-29.97172852 2.24679932 -29.19345703 2.05609863 -28.39160156 1.85961914 C-19.04139186 -0.17315346 -9.52278835 -0.00235906 0 0 Z " fill="#309BF0" transform="translate(148.75,-0.43750000000000006)"/>
<path d="M0 0 C3.05948639 1.57627531 5.45324767 3.70406419 8 6 C9.2375 7.04414062 9.2375 7.04414062 10.5 8.109375 C15.10526316 12.05263158 15.10526316 12.05263158 17 14 C17 14.66 17 15.32 17 16 C18.08941895 15.97381592 19.17883789 15.94763184 20.30126953 15.9206543 C24.36014097 15.82985339 28.41892345 15.77264316 32.47851562 15.7253418 C34.23225015 15.70026533 35.98588086 15.66619505 37.73925781 15.62280273 C40.26653706 15.56184396 42.79242981 15.53372281 45.3203125 15.51171875 C46.09867462 15.48591232 46.87703674 15.4601059 47.6789856 15.43351746 C51.76366775 15.43143375 54.25065592 15.79192814 57.47998047 18.40551758 C60.4112041 21.42335458 60.9138452 22.10399003 61.3125 26.25 C60.9449614 30.66046321 59.76719254 32.60030631 57 36 C53.69711664 38.20192224 52.72537273 38.23959968 48.89453125 38.1953125 C47.91162109 38.18886719 46.92871094 38.18242188 45.91601562 38.17578125 C44.89185547 38.15902344 43.86769531 38.14226562 42.8125 38.125 C41.77673828 38.11597656 40.74097656 38.10695312 39.67382812 38.09765625 C37.11565315 38.0740786 34.55794252 38.0411703 32 38 C32.33773437 38.82242188 32.67546875 39.64484375 33.0234375 40.4921875 C33.69246094 42.16667969 33.69246094 42.16667969 34.375 43.875 C34.81585938 44.96554688 35.25671875 46.05609375 35.7109375 47.1796875 C38.78119293 55.70995092 39.35951288 64.18245931 39.3125 73.1875 C39.30621582 74.83407593 39.30621582 74.83407593 39.29980469 76.51391602 C39.12960483 88.80361307 37.08348522 99.73958388 32 111 C32.90709717 110.9685791 32.90709717 110.9685791 33.83251953 110.93652344 C36.59650771 110.85291055 39.36022913 110.80119946 42.125 110.75 C43.07632813 110.71648437 44.02765625 110.68296875 45.0078125 110.6484375 C50.86634689 110.56706897 54.42498029 110.93656397 59 115 C61.50304378 118.75456567 61.45280074 120.54745934 61 125 C58.69315242 129.44281757 56.50869119 131.87199048 52 134 C49.28835603 134.23742671 46.80414692 134.32424413 44.1015625 134.265625 C42.55468505 134.26839655 41.00780934 134.27233931 39.4609375 134.27734375 C37.04242359 134.26900405 34.62522976 134.25000385 32.20703125 134.20947266 C23.00149216 133.76444724 23.00149216 133.76444724 14.49047852 136.48876953 C12.76974302 138.23278625 11.3932999 139.99095144 10 142 C8.59522917 143.1656115 7.16503428 144.30312142 5.6875 145.375 C5.03136719 145.85710937 4.37523437 146.33921875 3.69921875 146.8359375 C-0.33785676 149.60156624 -4.22157315 149.61896721 -9 149 C-11.87029869 147.20606332 -13.49131638 146.01736724 -15 143 C-15.49302415 138.43346484 -15.77235096 134.38379547 -13.5 130.3125 C-11.42628988 128.39431814 -9.32235026 126.53632178 -7.1875 124.6875 C4.87472402 114.23357251 12.89803362 99.9675692 15 84 C16.13491054 63.7644137 13.27705561 46.1985345 -0.4375 30.5625 C-4.17036285 26.6738307 -8.13827918 23.07729125 -12.25 19.59375 C-14.36121816 17.67103346 -14.93216017 16.62835249 -15.23828125 13.79296875 C-15.43980708 6.71835156 -15.43980708 6.71835156 -13.125 2.9375 C-9.13844618 -0.69729907 -5.21244594 -0.86315423 0 0 Z " fill="#FBFDFE" transform="translate(135,75)"/>
<path d="M0 0 C4.64491019 3.27255036 8.22013549 5.9790898 9.265625 11.81640625 C9.49445637 18.34627274 8.82355034 22.79196273 4.75 27.9375 C-0.02861423 31.64336409 -3.93685842 33.37144131 -10.05859375 33.28125 C-15.35853559 32.44988657 -19.10988667 29.10611616 -22.75 25.375 C-24.99392156 20.23267977 -25.00106183 15.46045971 -24.25 9.9375 C-19.35441203 -0.21631209 -10.44193302 -3.41370887 0 0 Z " fill="#FAFCFE" transform="translate(128.25,130.0625)"/>
</svg>
