<?xml version="1.0" encoding="UTF-8"?>
<svg version="1.1" xmlns="http://www.w3.org/2000/svg" width="2048" height="2048">
<path d="M0 0 C1.94244627 0.1654984 3.88493714 0.33047401 5.82746804 0.49497604 C11.13223963 0.94571421 16.43635345 1.40380928 21.74038482 1.8631649 C27.47261119 2.35828553 33.20542628 2.84650034 38.93817139 3.33557129 C48.85953661 4.18292502 58.78052192 5.03461398 68.70125961 5.88928223 C83.0448294 7.12496962 97.38895808 8.35406502 111.73322989 9.58157301 C135.00811029 11.57349529 158.28253352 13.57070804 181.55667114 15.57128906 C204.1599473 17.51419192 226.76343656 19.45458579 249.36721802 21.39160156 C250.06459482 21.4513638 250.76197162 21.51112604 251.48048105 21.57269925 C258.48415357 22.17288152 265.48783045 22.77301299 272.49151051 23.37310724 C286.75740675 24.59544898 301.02327393 25.81812972 315.28912354 27.04101562 C317.25421325 27.20946511 317.25421325 27.20946511 319.25900175 27.38131762 C362.35625997 31.07580811 405.45284853 34.77810327 448.54934692 38.48144531 C449.3409938 40.21048363 450.13125316 41.94015726 450.92094421 43.67008972 C451.58128583 45.1148029 451.58128583 45.1148029 452.25496769 46.5887022 C454.17343419 50.87618659 455.91401625 55.22667713 457.63919067 59.59472656 C458.01615585 60.54199615 458.39312103 61.48926575 458.7815094 62.46524048 C459.5941345 64.50732951 460.40569413 66.54984281 461.21627808 68.59274292 C463.42591836 74.1599389 465.6451928 79.72328494 467.86575317 85.28613281 C468.32868774 86.44586105 468.79162231 87.60558929 469.26858521 88.80046082 C474.42461111 101.6987927 479.67172611 114.5597194 484.92434692 127.41894531 C490.86366191 141.96427689 496.79534291 156.51150635 502.61184692 171.10644531 C510.98946593 192.12679201 519.47859468 213.1020251 527.9614563 234.08007812 C530.01490794 239.15863235 532.06645009 244.23795451 534.11709595 249.31764221 C543.0874008 271.55906043 543.0874008 271.55906043 552.20462036 293.74047852 C552.45073059 294.33324585 552.69684082 294.92601318 552.95040894 295.53674316 C553.67278343 297.27618883 554.3959836 299.0152916 555.11947632 300.75427246 C558.52046258 308.94790825 561.8440178 317.16978052 565.12747192 325.41113281 C566.18716865 328.06632289 567.24769378 330.72118168 568.30838013 333.37597656 C568.71189744 334.38611974 568.71189744 334.38611974 569.12356663 335.41666985 C571.93893069 342.46163411 574.7715009 349.49963233 577.60794067 356.53613281 C577.86188913 357.16617218 578.11583759 357.79621155 578.37748146 358.44534302 C579.96863013 362.39267076 581.56036267 366.33976288 583.15222168 370.2868042 C584.60133146 373.88019799 586.04994217 377.47379296 587.49856567 381.06738281 C587.79591173 381.80500477 588.09325779 382.54262672 588.39961433 383.30260086 C589.00671835 384.80863874 589.61382042 386.31467741 590.22092056 387.82071686 C591.14195432 390.10548849 592.06303801 392.39023998 592.98413086 394.67498779 C599.07064918 409.77277677 605.15231853 424.87251762 611.23345947 439.97247314 C614.27610666 447.52760706 617.31892822 455.08267075 620.36184692 462.63769531 C620.66219408 463.38340412 620.96254124 464.12911293 621.27198982 464.89741898 C627.86224168 481.25964794 634.45557221 497.62063577 641.04934692 513.98144531 C647.64306722 530.34211983 654.23633842 546.70297457 660.8265152 563.06507683 C661.73845036 565.32917622 662.65045438 567.59324787 663.56246948 569.85731506 C666.29399955 576.63856895 669.02498867 583.42003842 671.75333786 590.20257282 C673.25267881 593.92979399 674.75245621 597.65683941 676.25247192 601.38378906 C676.54932137 602.12136381 676.84617081 602.85893856 677.15201569 603.61886406 C681.53872025 614.5158055 685.95055463 625.40235099 690.37530518 636.28389359 C692.27455209 640.95702448 694.16972694 645.63180846 696.0647583 650.30665016 C697.86168497 654.73802076 699.6654308 659.16653279 701.47439194 663.59300327 C702.58433807 666.31365077 703.68774852 669.03691331 704.78937531 671.76093864 C705.54077974 673.61321573 706.30015193 675.46225436 707.05978394 677.31117249 C711.56426858 688.48434971 711.56426858 688.48434971 711.54934692 693.48144531 C710.3052063 695.61791992 710.3052063 695.61791992 708.39309692 697.38378906 C707.6995813 698.04701172 707.00606567 698.71023438 706.29153442 699.39355469 C705.55161255 700.06193359 704.81169067 700.7303125 704.04934692 701.41894531 C702.61982553 702.75879673 701.19272799 704.10123904 699.76809692 705.44628906 C699.05524536 706.1138623 698.3423938 706.78143555 697.60794067 707.46923828 C695.02962914 709.98945218 692.71333327 712.683002 690.37161255 715.42114258 C686.23280388 720.10059145 681.67368389 724.39275159 677.22122192 728.77050781 C673.71841765 732.23756918 670.29170971 735.70949133 667.08059692 739.45019531 C662.23638663 745.08689162 656.8700362 750.20531669 651.57669067 755.41503906 C647.9459552 759.01080758 644.37877336 762.60291487 641.04934692 766.48144531 C636.21802306 772.10957288 630.85937314 777.2158113 625.57669067 782.41503906 C621.31462312 786.63605942 617.24276134 790.92112922 613.3364563 795.47167969 C609.19878529 800.12486381 604.6592646 804.40692894 600.22122192 808.77050781 C596.71841765 812.23756918 593.29170971 815.70949133 590.08059692 819.45019531 C585.23638663 825.08689162 579.8700362 830.20531669 574.57669067 835.41503906 C570.9459552 839.01080758 567.37877336 842.60291487 564.04934692 846.48144531 C559.21802306 852.10957288 553.85937314 857.2158113 548.57669067 862.41503906 C544.31462312 866.63605942 540.24276134 870.92112922 536.3364563 875.47167969 C532.19878529 880.12486381 527.6592646 884.40692894 523.22122192 888.77050781 C519.72306788 892.23296641 516.30241868 895.69881059 513.10012817 899.43847656 C508.14718051 905.20572482 502.60219343 910.40262656 497.13723755 915.67871094 C496.31803833 916.48373047 495.49883911 917.28875 494.65481567 918.11816406 C493.54336182 919.19650513 493.54336182 919.19650513 492.40945435 920.29663086 C490.36177539 922.70176001 489.27856751 924.40251397 488.54934692 927.48144531 C489.26532133 930.09357863 489.26532133 930.09357863 490.77590942 932.66503906 C491.30684204 933.66317627 491.83777466 934.66131348 492.38479614 935.68969727 C492.9753479 936.75534912 493.56589966 937.82100098 494.17434692 938.91894531 C494.77392212 940.03422607 495.37349731 941.14950684 495.99124146 942.29858398 C497.82650618 945.70268845 499.68566158 949.09283513 501.54934692 952.48144531 C502.55573449 954.33236712 503.56102568 956.18388568 504.56497192 958.03613281 C506.49883324 961.59703457 508.44300805 965.15206346 510.39309692 968.70410156 C513.94669211 975.19008922 517.43710319 981.7096166 520.92434692 988.23144531 C522.20161557 990.61950632 523.47897263 993.00752003 524.75637817 995.39550781 C525.07270706 995.98691055 525.38903595 996.57831329 525.71495056 997.18763733 C529.00306055 1003.33308929 532.30607875 1009.47047887 535.61184692 1015.60644531 C536.1853186 1016.67088867 536.75879028 1017.73533203 537.34963989 1018.83203125 C538.50483498 1020.97595368 539.66010823 1023.11983399 540.81546021 1025.26367188 C543.72804957 1030.66889968 546.63858922 1036.07523099 549.54934692 1041.48144531 C550.71600389 1043.6481172 551.88267055 1045.81478387 553.04934692 1047.98144531 C597.38268026 1130.31477865 641.71601359 1212.64811198 686.04934692 1294.98144531 C686.62789429 1296.05563721 687.20644165 1297.1298291 687.80252075 1298.23657227 C688.95946364 1300.38568868 690.1155624 1302.53525976 691.27078247 1304.68530273 C694.00080002 1309.76382202 696.73921022 1314.83726138 699.50787354 1319.89480591 C700.49446727 1321.69795755 701.47836666 1323.50255307 702.4614563 1325.30761719 C703.70088198 1327.58138373 704.94543757 1329.85236371 706.1958313 1332.12011719 C706.75206177 1333.14298828 707.30829224 1334.16585938 707.88137817 1335.21972656 C708.37355835 1336.11731689 708.86573853 1337.01490723 709.37283325 1337.93969727 C710.54610136 1340.47443357 711.12701377 1342.7299371 711.54934692 1345.48144531 C710.68470825 1345.99416992 709.82006958 1346.50689453 708.92922974 1347.03515625 C689.21420121 1358.7162455 689.21420121 1358.7162455 669.54934692 1370.48144531 C660.19875324 1376.10795806 650.81224644 1381.67348352 641.42630005 1387.24072266 C633.45589192 1391.96877466 625.48993331 1396.70340281 617.54934692 1401.48144531 C608.19873774 1407.10793256 598.81224665 1412.6734834 589.42630005 1418.24072266 C581.45589192 1422.96877466 573.48993331 1427.70340281 565.54934692 1432.48144531 C556.19873774 1438.10793256 546.81224665 1443.6734834 537.42630005 1449.24072266 C529.45589192 1453.96877466 521.48993331 1458.70340281 513.54934692 1463.48144531 C504.19873774 1469.10793256 494.81224665 1474.6734834 485.42630005 1480.24072266 C477.45589192 1484.96877466 469.48993331 1489.70340281 461.54934692 1494.48144531 C452.19873774 1500.10793256 442.81224665 1505.6734834 433.42630005 1511.24072266 C425.45589192 1515.96877466 417.48993331 1520.70340281 409.54934692 1525.48144531 C400.20041561 1531.10692295 390.81566522 1536.67157409 381.43133545 1542.23770142 C371.70524817 1548.00540002 371.70524817 1548.00540002 361.99856567 1553.80566406 C361.24738968 1554.2542276 360.49621368 1554.70279114 359.72227478 1555.16494751 C358.18474725 1556.09534588 356.65638931 1557.0413292 355.14378357 1558.01171875 C350.48868614 1560.94799238 345.90906193 1563.18696411 340.7739563 1565.17797852 C328.20556287 1570.3417433 328.20556287 1570.3417433 319.70251846 1580.38219833 C316.39386503 1591.33414759 317.60915815 1603.54855996 318.23184204 1614.81079102 C318.44976114 1619.28744262 318.51095985 1623.76615487 318.5864563 1628.24707031 C318.75652857 1637.00112715 319.09690065 1645.73744918 319.54934692 1654.48144531 C318.91916656 1654.46908498 318.28898621 1654.45672464 317.63970947 1654.44398975 C302.13967032 1654.14676663 286.64251552 1653.95980862 271.13995361 1653.88816547 C263.6419102 1653.85099016 256.14745222 1653.77909683 248.65090942 1653.62084961 C202.67668365 1651.76745691 202.67668365 1651.76745691 162.78030396 1672.00546265 C160.45500316 1673.92947518 158.19820246 1675.1900436 155.43948364 1676.40884399 C149.96927421 1678.92564117 145.11339675 1681.39098914 142.30062866 1686.94882774 C139.52056012 1694.7012994 138.29873578 1702.82623876 136.92434692 1710.91894531 C136.42152736 1713.62113191 135.89787168 1716.31917232 135.37480164 1719.01750183 C134.26502939 1724.79798516 133.20382994 1730.58563162 132.17584229 1736.38119507 C130.68005588 1744.8108329 129.10636966 1753.2244857 127.51133692 1761.63584507 C125.11436792 1774.27901437 122.75615029 1786.92889995 120.42757261 1799.58482945 C117.13987193 1817.44485444 113.70655183 1835.27297092 110.17825317 1853.08691406 C109.92337065 1854.37432558 109.66848812 1855.6617371 109.40588188 1856.98816109 C108.14083958 1863.37419813 106.87317945 1869.75971163 105.60430908 1876.14498901 C103.3818254 1887.33732784 101.18641383 1898.53498592 98.98878288 1909.73222542 C93.49632127 1937.71021992 87.98025245 1965.68356837 82.44921875 1993.65396118 C81.56414056 1998.13000008 80.67998953 2002.60622048 79.79669189 2007.08261108 C78.77983154 2012.23561284 77.76110457 2017.3882418 76.74081421 2022.54056549 C76.36948903 2024.41726942 75.99881913 2026.29410313 75.62884521 2028.17107391 C75.1270313 2030.71621975 74.62281664 2033.26087807 74.11795044 2035.80541992 C73.9721734 2036.54770938 73.82639635 2037.28999884 73.67620182 2038.05478191 C73.10188997 2040.93813067 72.48033883 2043.68846959 71.54934692 2046.48144531 C66.69498245 2046.58932611 62.21902712 2046.22787263 57.43852234 2045.3949585 C56.75471198 2045.27748481 56.07090161 2045.16001112 55.36636972 2045.03897762 C53.08073412 2044.64485008 50.79665763 2044.24233781 48.51248169 2043.83984375 C46.85420346 2043.55211121 45.19583446 2043.26490137 43.53738308 2042.97816849 C38.98364176 2042.18933616 34.43120588 2041.39318539 29.87894249 2040.59587479 C24.97149224 2039.73771438 20.0628442 2038.88645849 15.15432739 2038.03442383 C6.6335885 2036.55444591 -1.88641517 2035.07029648 -10.40594482 2033.58337402 C-24.04032321 2031.20384137 -37.67616327 2028.83275295 -51.31222534 2026.46289062 C-55.99379923 2025.64916386 -60.67536169 2024.83537139 -65.35691833 2024.02154541 C-66.52566236 2023.81837857 -67.69440639 2023.61521173 -68.8985669 2023.40588832 C-77.30252553 2021.94487494 -85.70627788 2020.48267879 -94.10993958 2019.0199585 C-126.35611511 2013.40749487 -158.60506739 2007.81129036 -190.85690308 2002.23144531 C-191.93625161 2002.0447034 -193.01560015 2001.85796148 -194.12765622 2001.66556072 C-204.97375756 1999.78907009 -215.81992592 1997.91296709 -226.6661461 1996.0371635 C-247.34162769 1992.46143158 -268.01668493 1988.88324807 -288.69172859 1985.30498505 C-294.06974526 1984.37420501 -299.44777019 1983.44347277 -304.82579774 1982.51275563 C-333.55653795 1977.54062276 -362.28696459 1972.56668152 -391.01705933 1967.59082031 C-391.93204531 1967.43235091 -392.8470313 1967.27388151 -393.78974414 1967.11061001 C-406.60138244 1964.89171006 -419.41299759 1962.67267651 -432.22460794 1960.45361519 C-447.74785669 1957.76488111 -463.2711155 1955.07620518 -478.79440308 1952.38769531 C-479.70796672 1952.22947328 -480.62153037 1952.07125124 -481.56277776 1951.9082346 C-527.20474895 1944.0034559 -572.84768384 1936.10424605 -618.49063957 1928.20515454 C-687.51953902 1916.25882754 -756.54816809 1904.31094292 -825.57565308 1892.35644531 C-826.48705567 1892.19860487 -827.39845826 1892.04076442 -828.33747911 1891.87814093 C-906.04327729 1878.42069294 -983.74732764 1864.95316293 -1061.45065308 1851.48144531 C-1063.68252753 1844.58049127 -1064.73196359 1837.48603986 -1065.91134644 1830.3449707 C-1066.15385257 1828.89516828 -1066.39671892 1827.44542607 -1066.63991356 1825.99573898 C-1067.16614404 1822.85403957 -1067.68980015 1819.71192558 -1068.21148109 1816.56946754 C-1069.05599243 1811.48239233 -1069.90611697 1806.39626411 -1070.7568512 1801.31022644 C-1071.98877146 1793.94171749 -1073.21796551 1786.57275816 -1074.44534302 1779.20349121 C-1076.4165858 1767.36866169 -1078.39365107 1755.53480869 -1080.37203979 1743.70117188 C-1080.53863067 1742.70468762 -1080.70522154 1741.70820336 -1080.87686062 1740.68152261 C-1081.55331377 1736.6352955 -1082.22978742 1732.58907181 -1082.90633297 1728.54286015 C-1083.93369433 1722.39846404 -1084.96066192 1716.25400227 -1085.9873457 1710.1094929 C-1090.2589068 1684.54611544 -1094.54778171 1658.98575894 -1098.86862183 1633.43066406 C-1098.99570455 1632.67897422 -1099.12278728 1631.92728438 -1099.253721 1631.15281606 C-1100.54216209 1623.53184731 -1101.8311192 1615.91096591 -1103.12039202 1608.29013783 C-1112.04900034 1555.51335427 -1120.92501547 1502.72788878 -1129.75534058 1449.93457031 C-1129.9248157 1448.92134904 -1129.9248157 1448.92134904 -1130.09771457 1447.88765866 C-1133.95390951 1424.83288209 -1137.80834692 1401.7778117 -1141.66261244 1378.72271252 C-1145.17589755 1357.70727768 -1148.68954383 1336.69190331 -1152.20455933 1315.67675781 C-1152.31810181 1314.99791753 -1152.4316443 1314.31907724 -1152.54862747 1313.61966604 C-1158.23378536 1279.63003703 -1163.92578904 1245.64159948 -1169.66549683 1211.66113281 C-1169.79886145 1210.87157857 -1169.93222608 1210.08202433 -1170.06963205 1209.2685442 C-1172.13351387 1197.05093502 -1174.20012954 1184.83378853 -1176.26708603 1172.61669922 C-1184.19984581 1125.72795953 -1192.0788729 1078.83035266 -1199.92330933 1031.92675781 C-1200.03941567 1031.23253943 -1200.15552201 1030.53832106 -1200.27514672 1029.82306576 C-1204.12341647 1006.81346108 -1207.96997145 983.80356976 -1211.81637037 960.7936523 C-1215.53618307 938.54102381 -1219.25634994 916.28845462 -1222.97799683 894.03613281 C-1223.09418499 893.34141845 -1223.21037316 892.64670408 -1223.33008218 891.93093777 C-1231.18214921 844.98226679 -1239.07262812 798.04023564 -1247.01315308 751.10644531 C-1249.08872063 738.83844397 -1251.16351202 726.57031204 -1253.23580933 714.30175781 C-1253.36913367 713.51244527 -1253.50245801 712.72313272 -1253.63982248 711.90990162 C-1259.3598998 678.04108481 -1265.03034687 644.16396364 -1270.69674683 610.28613281 C-1270.8103238 609.60709476 -1270.92390078 608.92805671 -1271.04091948 608.22844175 C-1274.91415076 585.07153136 -1278.78559743 561.91432262 -1282.65685081 538.75708151 C-1286.1225598 518.02576033 -1289.58865005 497.29450299 -1293.05612183 476.56347656 C-1293.22459459 475.556215 -1293.22459459 475.556215 -1293.39647084 474.52860472 C-1303.29989885 415.31889163 -1313.2651327 356.11970812 -1323.27741051 296.92830849 C-1324.46351438 289.91609998 -1325.64915632 282.90381461 -1326.83288574 275.89120483 C-1327.15558724 273.97966331 -1327.15558724 273.97966331 -1327.48480797 272.02950478 C-1327.89991847 269.570536 -1328.31499058 267.11156073 -1328.73002052 264.65257835 C-1329.81126368 258.25079914 -1330.89860764 251.85011714 -1331.9943552 245.45080471 C-1332.5853454 241.99553316 -1333.17223623 238.53957458 -1333.75809288 235.08342934 C-1334.01296909 233.58635591 -1334.26983282 232.08961904 -1334.52900124 230.5932827 C-1334.86830304 228.63411794 -1335.20011936 226.67366104 -1335.53146362 224.71313477 C-1335.80170601 223.1377166 -1335.80170601 223.1377166 -1336.07740784 221.5304718 C-1336.49054675 218.1555554 -1336.51338966 214.87823549 -1336.45065308 211.48144531 C-1329.32018317 207.68664858 -1321.87028004 204.73971886 -1314.38186646 201.74246216 C-1310.24395191 200.08549442 -1306.11096674 198.41632561 -1301.97799683 196.74707031 C-1300.68248901 196.22404076 -1300.68248901 196.22404076 -1299.36080933 195.69044495 C-1289.90769056 191.86783677 -1280.49051323 187.9596233 -1271.07565308 184.04394531 C-1257.81786484 178.53257369 -1244.54990626 173.04763538 -1231.26315308 167.60644531 C-1217.08534051 161.79990843 -1202.92093091 155.96165695 -1188.76315308 150.10644531 C-1172.76604356 143.49099748 -1156.75345181 136.91467625 -1140.72756958 130.3692627 C-1125.54237795 124.16624266 -1110.37645311 117.91753494 -1095.2182312 111.64892578 C-1081.34762465 105.91297817 -1067.46797229 100.19979747 -1053.57852173 94.50964355 C-1040.29613848 89.06743525 -1027.02771193 83.5919393 -1013.76315308 78.10644531 C-997.76600742 71.49108433 -981.75345223 64.91467643 -965.72756958 58.3692627 C-950.54572679 52.16761063 -935.38293132 45.92078799 -920.228302 39.6529541 C-910.20705129 35.50828324 -900.18469766 31.36659995 -890.14987183 27.25488281 C-889.32614578 26.91724915 -888.50241974 26.57961548 -887.6537323 26.23175049 C-883.63146354 24.58367116 -879.60803807 22.93850161 -875.58273315 21.29785156 C-867.42238876 17.96656285 -859.29551504 14.57061054 -851.20065308 11.08300781 C-848.70971177 10.01730278 -846.21823638 8.95285639 -843.72659302 7.88879395 C-841.38006073 6.87983934 -839.04223927 5.8523726 -836.70407104 4.82421875 C-835.28406983 4.21681652 -833.86368097 3.61031943 -832.44284058 3.00488281 C-831.48631592 2.57352524 -831.48631592 2.57352524 -830.51046753 2.13345337 C-827.63722829 0.93094702 -825.90453682 0.36777253 -822.84298706 1.13452148 C-821.65878174 1.80124878 -821.65878174 1.80124878 -820.45065308 2.48144531 C-819.61300415 2.94156006 -818.77535522 3.4016748 -817.912323 3.87573242 C-816.56037842 4.68409546 -816.56037842 4.68409546 -815.18112183 5.50878906 C-814.14415161 6.12616943 -813.1071814 6.7435498 -812.03878784 7.37963867 C-810.91657837 8.05260986 -809.7943689 8.72558105 -808.63815308 9.41894531 C-807.44297168 10.13227346 -806.24757266 10.84523708 -805.05197144 11.55786133 C-802.50464553 13.07653075 -799.95835617 14.59691996 -797.41256714 16.11816406 C-793.4597346 18.47829718 -789.49901964 20.82496934 -785.53659058 23.16894531 C-772.67062539 30.78310263 -759.83582742 38.44114798 -747.07565308 46.23144531 C-737.14110058 52.29663884 -727.11391906 58.18172035 -717.01412964 63.96777344 C-708.70049214 68.73785203 -700.46778792 73.63093209 -692.25973511 78.58007812 C-684.42303463 83.30426971 -676.55983245 87.98170521 -668.68612671 92.64379883 C-657.773659 99.105291 -646.8992058 105.62210073 -636.07565308 112.23144531 C-626.1412582 118.29689033 -616.11391135 124.18172476 -606.01412964 129.96777344 C-597.70049214 134.73785203 -589.46778792 139.63093209 -581.25973511 144.58007812 C-573.42159362 149.30513839 -565.55690976 153.98336146 -557.68173218 158.64627075 C-544.20930833 166.62442271 -530.79732581 174.69638435 -517.42721558 182.84472656 C-516.41691284 183.45525879 -515.40661011 184.06579102 -514.36569214 184.69482422 C-512.43426631 185.87859091 -510.51896834 187.08911473 -508.62155151 188.32666016 C-507.7478894 188.88691895 -506.87422729 189.44717773 -505.97409058 190.02441406 C-504.83979614 190.77307739 -504.83979614 190.77307739 -503.68258667 191.53686523 C-500.72419474 192.78889087 -499.49514598 192.48632605 -496.45065308 191.48144531 C-494.01468131 190.33228779 -491.66346511 189.1472341 -489.29830933 187.86816406 C-488.61050888 187.5026796 -487.92270844 187.13719513 -487.21406555 186.76063538 C-484.97699743 185.56971113 -482.7450468 184.36953461 -480.51315308 183.16894531 C-478.96131268 182.34003982 -477.40922766 181.51159213 -475.85690308 180.68359375 C-465.79967984 175.31160617 -455.77565765 169.87894473 -445.77877808 164.39550781 C-436.47186231 159.29453482 -427.11303178 154.28893663 -417.7651062 149.26367188 C-412.32560182 146.33877632 -406.88820998 143.40995927 -401.45065308 140.48144531 C-394.9277646 136.96870544 -388.40461538 133.45645354 -381.88034058 129.94628906 C-371.39638302 124.30492143 -360.91686873 118.65567122 -350.45065308 112.98144531 C-338.89029844 106.7140354 -327.31321151 100.47796287 -315.73287964 94.24755859 C-310.30478759 91.32678964 -304.87775853 88.40404694 -299.45065308 85.48144531 C-292.9277488 81.96873475 -286.40461539 78.45645355 -279.88034058 74.94628906 C-268.41993011 68.77949676 -256.96651192 62.60021621 -245.52658081 56.39550781 C-240.16106348 53.48672268 -234.79129243 50.58603431 -229.41549683 47.69628906 C-228.82725128 47.37999542 -228.23900574 47.06370178 -227.63293457 46.73782349 C-224.78573739 45.20709606 -221.93796333 43.67745809 -219.08932495 42.14941406 C-218.06258667 41.59769531 -217.03584839 41.04597656 -215.97799683 40.47753906 C-214.52755981 39.70579346 -214.52755981 39.70579346 -213.04782104 38.91845703 C-210.85250802 37.70379145 -208.79641115 36.39563054 -206.70455933 35.01660156 C-202.13957207 32.86289209 -198.17768434 33.66123554 -193.47944641 35.07432556 C-191.41534453 35.817419 -189.38470522 36.61875502 -187.35299683 37.44628906 C-186.19516693 37.90427132 -186.19516693 37.90427132 -185.01394653 38.37150574 C-183.34271101 39.03354122 -181.67308859 39.69966056 -180.00494385 40.3694458 C-177.34718144 41.43537754 -174.68460399 42.48830135 -172.02023315 43.53759766 C-168.19690982 45.0437687 -164.37488224 46.55313833 -160.5541687 48.06591797 C-150.97374915 51.85792486 -141.39144944 55.64400213 -131.7878418 59.37698364 C-129.69004719 60.1958449 -127.59454678 61.02060832 -125.50140381 61.85128784 C-122.56662365 63.01560853 -119.62502094 64.16072912 -116.68112183 65.30175781 C-115.8037738 65.65505661 -114.92642578 66.00835541 -114.02249146 66.37236023 C-113.21269836 66.68180069 -112.40290527 66.99124115 -111.568573 67.31005859 C-110.51496834 67.72398361 -110.51496834 67.72398361 -109.44007874 68.14627075 C-106.79803537 68.59139707 -105.67802337 67.9015989 -103.45065308 66.48144531 C-101.83563544 65.01768258 -100.27279833 63.49553596 -98.74752808 61.93847656 C-97.39981323 60.57432617 -97.39981323 60.57432617 -96.02487183 59.18261719 C-95.08308377 58.2201 -94.14167952 57.25720712 -93.20065308 56.29394531 C-87.75238845 50.74223263 -82.32991966 45.27854368 -76.41647339 40.22241211 C-72.58293002 36.82735526 -69.03931749 33.13134974 -65.45065308 29.48144531 C-61.19093425 25.14903504 -56.96079437 20.85747854 -52.33346558 16.91503906 C-49.62831962 14.59834832 -47.22605453 12.196583 -44.88034058 9.51660156 C-44.29252808 8.86240234 -43.70471558 8.20820313 -43.09909058 7.53417969 C-41.91335288 6.20348947 -40.75420474 4.84863948 -39.62252808 3.47167969 C-30.77235718 -6.11600545 -11.95082242 -1.0455296 0 0 Z " fill="#000000" transform="translate(1336.4506530761719,1.5185546875)"/>
<path d="M0 0 C1.94244627 0.1654984 3.88493714 0.33047401 5.82746804 0.49497604 C11.13223963 0.94571421 16.43635345 1.40380928 21.74038482 1.8631649 C27.47261119 2.35828553 33.20542628 2.84650034 38.93817139 3.33557129 C48.85953661 4.18292502 58.78052192 5.03461398 68.70125961 5.88928223 C83.0448294 7.12496962 97.38895808 8.35406502 111.73322989 9.58157301 C135.00811029 11.57349529 158.28253352 13.57070804 181.55667114 15.57128906 C204.1599473 17.51419192 226.76343656 19.45458579 249.36721802 21.39160156 C250.06459482 21.4513638 250.76197162 21.51112604 251.48048105 21.57269925 C258.48415357 22.17288152 265.48783045 22.77301299 272.49151051 23.37310724 C286.75740675 24.59544898 301.02327393 25.81812972 315.28912354 27.04101562 C317.25421325 27.20946511 317.25421325 27.20946511 319.25900175 27.38131762 C362.35625997 31.07580811 405.45284853 34.77810327 448.54934692 38.48144531 C449.3409938 40.21048363 450.13125316 41.94015726 450.92094421 43.67008972 C451.58128583 45.1148029 451.58128583 45.1148029 452.25496769 46.5887022 C454.17343419 50.87618659 455.91401625 55.22667713 457.63919067 59.59472656 C458.01615585 60.54199615 458.39312103 61.48926575 458.7815094 62.46524048 C459.5941345 64.50732951 460.40569413 66.54984281 461.21627808 68.59274292 C463.42591836 74.1599389 465.6451928 79.72328494 467.86575317 85.28613281 C468.32868774 86.44586105 468.79162231 87.60558929 469.26858521 88.80046082 C474.42461111 101.6987927 479.67172611 114.5597194 484.92434692 127.41894531 C490.86366191 141.96427689 496.79534291 156.51150635 502.61184692 171.10644531 C510.98946593 192.12679201 519.47859468 213.1020251 527.9614563 234.08007812 C530.01490794 239.15863235 532.06645009 244.23795451 534.11709595 249.31764221 C543.0874008 271.55906043 543.0874008 271.55906043 552.20462036 293.74047852 C552.45073059 294.33324585 552.69684082 294.92601318 552.95040894 295.53674316 C553.67278343 297.27618883 554.3959836 299.0152916 555.11947632 300.75427246 C558.52046258 308.94790825 561.8440178 317.16978052 565.12747192 325.41113281 C566.18716865 328.06632289 567.24769378 330.72118168 568.30838013 333.37597656 C568.71189744 334.38611974 568.71189744 334.38611974 569.12356663 335.41666985 C571.93893069 342.46163411 574.7715009 349.49963233 577.60794067 356.53613281 C577.86188913 357.16617218 578.11583759 357.79621155 578.37748146 358.44534302 C579.96863013 362.39267076 581.56036267 366.33976288 583.15222168 370.2868042 C584.60133146 373.88019799 586.04994217 377.47379296 587.49856567 381.06738281 C587.79591173 381.80500477 588.09325779 382.54262672 588.39961433 383.30260086 C589.00671835 384.80863874 589.61382042 386.31467741 590.22092056 387.82071686 C591.14195432 390.10548849 592.06303801 392.39023998 592.98413086 394.67498779 C599.07064918 409.77277677 605.15231853 424.87251762 611.23345947 439.97247314 C614.27610666 447.52760706 617.31892822 455.08267075 620.36184692 462.63769531 C620.66219408 463.38340412 620.96254124 464.12911293 621.27198982 464.89741898 C627.86224168 481.25964794 634.45557221 497.62063577 641.04934692 513.98144531 C647.64306722 530.34211983 654.23633842 546.70297457 660.8265152 563.06507683 C661.73845036 565.32917622 662.65045438 567.59324787 663.56246948 569.85731506 C666.29399955 576.63856895 669.02498867 583.42003842 671.75333786 590.20257282 C673.25267881 593.92979399 674.75245621 597.65683941 676.25247192 601.38378906 C676.54932137 602.12136381 676.84617081 602.85893856 677.15201569 603.61886406 C681.53872025 614.5158055 685.95055463 625.40235099 690.37530518 636.28389359 C692.27455209 640.95702448 694.16972694 645.63180846 696.0647583 650.30665016 C697.86168497 654.73802076 699.6654308 659.16653279 701.47439194 663.59300327 C702.58433807 666.31365077 703.68774852 669.03691331 704.78937531 671.76093864 C705.54077974 673.61321573 706.30015193 675.46225436 707.05978394 677.31117249 C711.56426858 688.48434971 711.56426858 688.48434971 711.54934692 693.48144531 C710.3052063 695.61791992 710.3052063 695.61791992 708.39309692 697.38378906 C707.6995813 698.04701172 707.00606567 698.71023438 706.29153442 699.39355469 C705.55161255 700.06193359 704.81169067 700.7303125 704.04934692 701.41894531 C702.61982553 702.75879673 701.19272799 704.10123904 699.76809692 705.44628906 C699.05524536 706.1138623 698.3423938 706.78143555 697.60794067 707.46923828 C695.02962914 709.98945218 692.71333327 712.683002 690.37161255 715.42114258 C686.23280388 720.10059145 681.67368389 724.39275159 677.22122192 728.77050781 C673.71841765 732.23756918 670.29170971 735.70949133 667.08059692 739.45019531 C662.23638663 745.08689162 656.8700362 750.20531669 651.57669067 755.41503906 C647.9459552 759.01080758 644.37877336 762.60291487 641.04934692 766.48144531 C636.21802306 772.10957288 630.85937314 777.2158113 625.57669067 782.41503906 C621.31462312 786.63605942 617.24276134 790.92112922 613.3364563 795.47167969 C609.19878529 800.12486381 604.6592646 804.40692894 600.22122192 808.77050781 C596.71841765 812.23756918 593.29170971 815.70949133 590.08059692 819.45019531 C585.23638663 825.08689162 579.8700362 830.20531669 574.57669067 835.41503906 C570.9459552 839.01080758 567.37877336 842.60291487 564.04934692 846.48144531 C559.21802306 852.10957288 553.85937314 857.2158113 548.57669067 862.41503906 C544.31462312 866.63605942 540.24276134 870.92112922 536.3364563 875.47167969 C532.19878529 880.12486381 527.6592646 884.40692894 523.22122192 888.77050781 C519.72306788 892.23296641 516.30241868 895.69881059 513.10012817 899.43847656 C508.14718051 905.20572482 502.60219343 910.40262656 497.13723755 915.67871094 C496.31803833 916.48373047 495.49883911 917.28875 494.65481567 918.11816406 C493.54336182 919.19650513 493.54336182 919.19650513 492.40945435 920.29663086 C490.36177539 922.70176001 489.27856751 924.40251397 488.54934692 927.48144531 C489.26532133 930.09357863 489.26532133 930.09357863 490.77590942 932.66503906 C491.30684204 933.66317627 491.83777466 934.66131348 492.38479614 935.68969727 C492.9753479 936.75534912 493.56589966 937.82100098 494.17434692 938.91894531 C494.77392212 940.03422607 495.37349731 941.14950684 495.99124146 942.29858398 C497.82650618 945.70268845 499.68566158 949.09283513 501.54934692 952.48144531 C502.55573449 954.33236712 503.56102568 956.18388568 504.56497192 958.03613281 C506.49883324 961.59703457 508.44300805 965.15206346 510.39309692 968.70410156 C513.94669211 975.19008922 517.43710319 981.7096166 520.92434692 988.23144531 C522.20161557 990.61950632 523.47897263 993.00752003 524.75637817 995.39550781 C525.07270706 995.98691055 525.38903595 996.57831329 525.71495056 997.18763733 C529.00306055 1003.33308929 532.30607875 1009.47047887 535.61184692 1015.60644531 C536.1853186 1016.67088867 536.75879028 1017.73533203 537.34963989 1018.83203125 C538.50483498 1020.97595368 539.66010823 1023.11983399 540.81546021 1025.26367188 C543.72804957 1030.66889968 546.63858922 1036.07523099 549.54934692 1041.48144531 C550.71600389 1043.6481172 551.88267055 1045.81478387 553.04934692 1047.98144531 C597.38268026 1130.31477865 641.71601359 1212.64811198 686.04934692 1294.98144531 C686.62789429 1296.05563721 687.20644165 1297.1298291 687.80252075 1298.23657227 C688.95946364 1300.38568868 690.1155624 1302.53525976 691.27078247 1304.68530273 C694.00080002 1309.76382202 696.73921022 1314.83726138 699.50787354 1319.89480591 C700.49446727 1321.69795755 701.47836666 1323.50255307 702.4614563 1325.30761719 C703.70088198 1327.58138373 704.94543757 1329.85236371 706.1958313 1332.12011719 C706.75206177 1333.14298828 707.30829224 1334.16585938 707.88137817 1335.21972656 C708.37355835 1336.11731689 708.86573853 1337.01490723 709.37283325 1337.93969727 C710.54610136 1340.47443357 711.12701377 1342.7299371 711.54934692 1345.48144531 C710.68470825 1345.99416992 709.82006958 1346.50689453 708.92922974 1347.03515625 C689.21420121 1358.7162455 689.21420121 1358.7162455 669.54934692 1370.48144531 C660.19875324 1376.10795806 650.81224644 1381.67348352 641.42630005 1387.24072266 C633.45589192 1391.96877466 625.48993331 1396.70340281 617.54934692 1401.48144531 C608.19873774 1407.10793256 598.81224665 1412.6734834 589.42630005 1418.24072266 C581.45589192 1422.96877466 573.48993331 1427.70340281 565.54934692 1432.48144531 C556.19873774 1438.10793256 546.81224665 1443.6734834 537.42630005 1449.24072266 C529.45589192 1453.96877466 521.48993331 1458.70340281 513.54934692 1463.48144531 C504.19873774 1469.10793256 494.81224665 1474.6734834 485.42630005 1480.24072266 C477.45589192 1484.96877466 469.48993331 1489.70340281 461.54934692 1494.48144531 C452.19873774 1500.10793256 442.81224665 1505.6734834 433.42630005 1511.24072266 C425.45589192 1515.96877466 417.48993331 1520.70340281 409.54934692 1525.48144531 C400.20041561 1531.10692295 390.81566522 1536.67157409 381.43133545 1542.23770142 C373.35468771 1547.02861961 365.28357404 1551.82786625 357.23684692 1556.66894531 C349.74466151 1561.1728246 342.24077594 1565.65685856 334.72601318 1570.12295532 C333.48904459 1570.85849449 332.25252856 1571.59479531 331.01647949 1572.33187866 C329.29562069 1573.35780614 327.57291689 1574.38063696 325.85012817 1575.40332031 C324.85150757 1575.99725586 323.85288696 1576.59119141 322.82400513 1577.203125 C320.54934692 1578.48144531 320.54934692 1578.48144531 319.54934692 1578.48144531 C319.54934692 1186.44144531 319.54934692 794.40144531 319.54934692 390.48144531 C-97.57065308 390.48144531 -514.69065308 390.48144531 -944.45065308 390.48144531 C-944.45065308 807.60144531 -944.45065308 1224.72144531 -944.45065308 1654.48144531 C-569.57065308 1654.48144531 -194.69065308 1654.48144531 191.54934692 1654.48144531 C187.60849161 1657.63412956 183.77263503 1660.26027656 179.44778442 1662.78222656 C178.77067413 1663.18168991 178.09356384 1663.58115326 177.39593506 1663.99272156 C175.24087718 1665.26347091 173.08284971 1666.52905785 170.92434692 1667.79394531 C168.78767743 1669.04879542 166.6517269 1670.304833 164.51702881 1671.56303406 C163.19467493 1672.34216094 161.87119456 1673.11938112 160.54626465 1673.89411926 C159.30072507 1674.62694044 158.06214717 1675.37174431 156.83141041 1676.12916279 C155.20536844 1677.09270659 153.54280707 1677.99570614 151.85967731 1678.85564995 C146.68630534 1681.70053712 143.12521563 1683.84718425 141.36302185 1689.6653595 C140.92902419 1691.70891917 140.54525089 1693.76356654 140.20291138 1695.82446289 C139.97598571 1696.95866826 139.74906004 1698.09287363 139.51525784 1699.26144886 C138.77019759 1703.04254792 138.09185911 1706.83254537 137.41262817 1710.62597656 C136.89831027 1713.33161488 136.36977789 1716.03442554 135.84164429 1718.73739624 C134.71569516 1724.53788156 133.62305681 1730.34382448 132.55303955 1736.15487671 C130.99651318 1744.60604392 129.38697888 1753.04644322 127.76296031 1761.48487103 C125.32368191 1774.16167629 122.91135831 1786.84336724 120.52010167 1799.52931201 C117.15014895 1817.4025461 113.68536132 1835.25570208 110.15872192 1853.09863281 C109.77727146 1855.02922609 109.77727146 1855.02922609 109.38811493 1856.99882126 C108.37563983 1862.12147258 107.36249693 1867.24399088 106.34814072 1872.36627007 C103.88222942 1884.81899585 101.43501838 1897.27537164 98.9890976 1909.73203659 C93.49458238 1937.70971408 87.98026906 1965.68348439 82.44921875 1993.65396118 C81.56414056 1998.13000008 80.67998953 2002.60622048 79.79669189 2007.08261108 C78.77983154 2012.23561284 77.76110457 2017.3882418 76.74081421 2022.54056549 C76.36948903 2024.41726942 75.99881913 2026.29410313 75.62884521 2028.17107391 C75.1270313 2030.71621975 74.62281664 2033.26087807 74.11795044 2035.80541992 C73.9721734 2036.54770938 73.82639635 2037.28999884 73.67620182 2038.05478191 C73.10188997 2040.93813067 72.48033883 2043.68846959 71.54934692 2046.48144531 C66.69498245 2046.58932611 62.21902712 2046.22787263 57.43852234 2045.3949585 C56.75471198 2045.27748481 56.07090161 2045.16001112 55.36636972 2045.03897762 C53.08073412 2044.64485008 50.79665763 2044.24233781 48.51248169 2043.83984375 C46.85420346 2043.55211121 45.19583446 2043.26490137 43.53738308 2042.97816849 C38.98364176 2042.18933616 34.43120588 2041.39318539 29.87894249 2040.59587479 C24.97149224 2039.73771438 20.0628442 2038.88645849 15.15432739 2038.03442383 C6.6335885 2036.55444591 -1.88641517 2035.07029648 -10.40594482 2033.58337402 C-24.04032321 2031.20384137 -37.67616327 2028.83275295 -51.31222534 2026.46289062 C-55.99379923 2025.64916386 -60.67536169 2024.83537139 -65.35691833 2024.02154541 C-66.52566236 2023.81837857 -67.69440639 2023.61521173 -68.8985669 2023.40588832 C-77.30252553 2021.94487494 -85.70627788 2020.48267879 -94.10993958 2019.0199585 C-126.35611511 2013.40749487 -158.60506739 2007.81129036 -190.85690308 2002.23144531 C-191.93625161 2002.0447034 -193.01560015 2001.85796148 -194.12765622 2001.66556072 C-204.97375756 1999.78907009 -215.81992592 1997.91296709 -226.6661461 1996.0371635 C-247.34162769 1992.46143158 -268.01668493 1988.88324807 -288.69172859 1985.30498505 C-294.06974526 1984.37420501 -299.44777019 1983.44347277 -304.82579774 1982.51275563 C-333.55653795 1977.54062276 -362.28696459 1972.56668152 -391.01705933 1967.59082031 C-391.93204531 1967.43235091 -392.8470313 1967.27388151 -393.78974414 1967.11061001 C-406.60138244 1964.89171006 -419.41299759 1962.67267651 -432.22460794 1960.45361519 C-447.74785669 1957.76488111 -463.2711155 1955.07620518 -478.79440308 1952.38769531 C-479.70796672 1952.22947328 -480.62153037 1952.07125124 -481.56277776 1951.9082346 C-527.20474895 1944.0034559 -572.84768384 1936.10424605 -618.49063957 1928.20515454 C-687.51953902 1916.25882754 -756.54816809 1904.31094292 -825.57565308 1892.35644531 C-826.48705567 1892.19860487 -827.39845826 1892.04076442 -828.33747911 1891.87814093 C-906.04327729 1878.42069294 -983.74732764 1864.95316293 -1061.45065308 1851.48144531 C-1063.68252753 1844.58049127 -1064.73196359 1837.48603986 -1065.91134644 1830.3449707 C-1066.15385257 1828.89516828 -1066.39671892 1827.44542607 -1066.63991356 1825.99573898 C-1067.16614404 1822.85403957 -1067.68980015 1819.71192558 -1068.21148109 1816.56946754 C-1069.05599243 1811.48239233 -1069.90611697 1806.39626411 -1070.7568512 1801.31022644 C-1071.98877146 1793.94171749 -1073.21796551 1786.57275816 -1074.44534302 1779.20349121 C-1076.4165858 1767.36866169 -1078.39365107 1755.53480869 -1080.37203979 1743.70117188 C-1080.53863067 1742.70468762 -1080.70522154 1741.70820336 -1080.87686062 1740.68152261 C-1081.55331377 1736.6352955 -1082.22978742 1732.58907181 -1082.90633297 1728.54286015 C-1083.93369433 1722.39846404 -1084.96066192 1716.25400227 -1085.9873457 1710.1094929 C-1090.2589068 1684.54611544 -1094.54778171 1658.98575894 -1098.86862183 1633.43066406 C-1098.99570455 1632.67897422 -1099.12278728 1631.92728438 -1099.253721 1631.15281606 C-1100.54216209 1623.53184731 -1101.8311192 1615.91096591 -1103.12039202 1608.29013783 C-1112.04900034 1555.51335427 -1120.92501547 1502.72788878 -1129.75534058 1449.93457031 C-1129.9248157 1448.92134904 -1129.9248157 1448.92134904 -1130.09771457 1447.88765866 C-1133.95390951 1424.83288209 -1137.80834692 1401.7778117 -1141.66261244 1378.72271252 C-1145.17589755 1357.70727768 -1148.68954383 1336.69190331 -1152.20455933 1315.67675781 C-1152.31810181 1314.99791753 -1152.4316443 1314.31907724 -1152.54862747 1313.61966604 C-1158.23378536 1279.63003703 -1163.92578904 1245.64159948 -1169.66549683 1211.66113281 C-1169.79886145 1210.87157857 -1169.93222608 1210.08202433 -1170.06963205 1209.2685442 C-1172.13351387 1197.05093502 -1174.20012954 1184.83378853 -1176.26708603 1172.61669922 C-1184.19984581 1125.72795953 -1192.0788729 1078.83035266 -1199.92330933 1031.92675781 C-1200.03941567 1031.23253943 -1200.15552201 1030.53832106 -1200.27514672 1029.82306576 C-1204.12341647 1006.81346108 -1207.96997145 983.80356976 -1211.81637037 960.7936523 C-1215.53618307 938.54102381 -1219.25634994 916.28845462 -1222.97799683 894.03613281 C-1223.09418499 893.34141845 -1223.21037316 892.64670408 -1223.33008218 891.93093777 C-1231.18214921 844.98226679 -1239.07262812 798.04023564 -1247.01315308 751.10644531 C-1249.08872063 738.83844397 -1251.16351202 726.57031204 -1253.23580933 714.30175781 C-1253.36913367 713.51244527 -1253.50245801 712.72313272 -1253.63982248 711.90990162 C-1259.3598998 678.04108481 -1265.03034687 644.16396364 -1270.69674683 610.28613281 C-1270.8103238 609.60709476 -1270.92390078 608.92805671 -1271.04091948 608.22844175 C-1274.91415076 585.07153136 -1278.78559743 561.91432262 -1282.65685081 538.75708151 C-1286.1225598 518.02576033 -1289.58865005 497.29450299 -1293.05612183 476.56347656 C-1293.22459459 475.556215 -1293.22459459 475.556215 -1293.39647084 474.52860472 C-1303.29989885 415.31889163 -1313.2651327 356.11970812 -1323.27741051 296.92830849 C-1324.46351438 289.91609998 -1325.64915632 282.90381461 -1326.83288574 275.89120483 C-1327.15558724 273.97966331 -1327.15558724 273.97966331 -1327.48480797 272.02950478 C-1327.89991847 269.570536 -1328.31499058 267.11156073 -1328.73002052 264.65257835 C-1329.81126368 258.25079914 -1330.89860764 251.85011714 -1331.9943552 245.45080471 C-1332.5853454 241.99553316 -1333.17223623 238.53957458 -1333.75809288 235.08342934 C-1334.01296909 233.58635591 -1334.26983282 232.08961904 -1334.52900124 230.5932827 C-1334.86830304 228.63411794 -1335.20011936 226.67366104 -1335.53146362 224.71313477 C-1335.80170601 223.1377166 -1335.80170601 223.1377166 -1336.07740784 221.5304718 C-1336.49054675 218.1555554 -1336.51338966 214.87823549 -1336.45065308 211.48144531 C-1329.32018317 207.68664858 -1321.87028004 204.73971886 -1314.38186646 201.74246216 C-1310.24395191 200.08549442 -1306.11096674 198.41632561 -1301.97799683 196.74707031 C-1300.68248901 196.22404076 -1300.68248901 196.22404076 -1299.36080933 195.69044495 C-1289.90769056 191.86783677 -1280.49051323 187.9596233 -1271.07565308 184.04394531 C-1257.81786484 178.53257369 -1244.54990626 173.04763538 -1231.26315308 167.60644531 C-1217.08534051 161.79990843 -1202.92093091 155.96165695 -1188.76315308 150.10644531 C-1172.76604356 143.49099748 -1156.75345181 136.91467625 -1140.72756958 130.3692627 C-1125.54237795 124.16624266 -1110.37645311 117.91753494 -1095.2182312 111.64892578 C-1081.34762465 105.91297817 -1067.46797229 100.19979747 -1053.57852173 94.50964355 C-1040.29613848 89.06743525 -1027.02771193 83.5919393 -1013.76315308 78.10644531 C-997.76600742 71.49108433 -981.75345223 64.91467643 -965.72756958 58.3692627 C-950.54572679 52.16761063 -935.38293132 45.92078799 -920.228302 39.6529541 C-910.20705129 35.50828324 -900.18469766 31.36659995 -890.14987183 27.25488281 C-889.32614578 26.91724915 -888.50241974 26.57961548 -887.6537323 26.23175049 C-883.63146354 24.58367116 -879.60803807 22.93850161 -875.58273315 21.29785156 C-867.42238876 17.96656285 -859.29551504 14.57061054 -851.20065308 11.08300781 C-848.70971177 10.01730278 -846.21823638 8.95285639 -843.72659302 7.88879395 C-841.38006073 6.87983934 -839.04223927 5.8523726 -836.70407104 4.82421875 C-835.28406983 4.21681652 -833.86368097 3.61031943 -832.44284058 3.00488281 C-831.48631592 2.57352524 -831.48631592 2.57352524 -830.51046753 2.13345337 C-827.63722829 0.93094702 -825.90453682 0.36777253 -822.84298706 1.13452148 C-821.65878174 1.80124878 -821.65878174 1.80124878 -820.45065308 2.48144531 C-819.61300415 2.94156006 -818.77535522 3.4016748 -817.912323 3.87573242 C-816.56037842 4.68409546 -816.56037842 4.68409546 -815.18112183 5.50878906 C-814.14415161 6.12616943 -813.1071814 6.7435498 -812.03878784 7.37963867 C-810.91657837 8.05260986 -809.7943689 8.72558105 -808.63815308 9.41894531 C-807.44297168 10.13227346 -806.24757266 10.84523708 -805.05197144 11.55786133 C-802.50464553 13.07653075 -799.95835617 14.59691996 -797.41256714 16.11816406 C-793.4597346 18.47829718 -789.49901964 20.82496934 -785.53659058 23.16894531 C-772.67062539 30.78310263 -759.83582742 38.44114798 -747.07565308 46.23144531 C-737.14110058 52.29663884 -727.11391906 58.18172035 -717.01412964 63.96777344 C-708.70049214 68.73785203 -700.46778792 73.63093209 -692.25973511 78.58007812 C-684.42303463 83.30426971 -676.55983245 87.98170521 -668.68612671 92.64379883 C-657.773659 99.105291 -646.8992058 105.62210073 -636.07565308 112.23144531 C-626.1412582 118.29689033 -616.11391135 124.18172476 -606.01412964 129.96777344 C-597.70049214 134.73785203 -589.46778792 139.63093209 -581.25973511 144.58007812 C-573.42159362 149.30513839 -565.55690976 153.98336146 -557.68173218 158.64627075 C-544.20930833 166.62442271 -530.79732581 174.69638435 -517.42721558 182.84472656 C-516.41691284 183.45525879 -515.40661011 184.06579102 -514.36569214 184.69482422 C-512.43426631 185.87859091 -510.51896834 187.08911473 -508.62155151 188.32666016 C-507.7478894 188.88691895 -506.87422729 189.44717773 -505.97409058 190.02441406 C-504.83979614 190.77307739 -504.83979614 190.77307739 -503.68258667 191.53686523 C-500.72419474 192.78889087 -499.49514598 192.48632605 -496.45065308 191.48144531 C-494.01468131 190.33228779 -491.66346511 189.1472341 -489.29830933 187.86816406 C-488.61050888 187.5026796 -487.92270844 187.13719513 -487.21406555 186.76063538 C-484.97699743 185.56971113 -482.7450468 184.36953461 -480.51315308 183.16894531 C-478.96131268 182.34003982 -477.40922766 181.51159213 -475.85690308 180.68359375 C-465.79967984 175.31160617 -455.77565765 169.87894473 -445.77877808 164.39550781 C-436.47186231 159.29453482 -427.11303178 154.28893663 -417.7651062 149.26367188 C-412.32560182 146.33877632 -406.88820998 143.40995927 -401.45065308 140.48144531 C-394.9277646 136.96870544 -388.40461538 133.45645354 -381.88034058 129.94628906 C-371.39638302 124.30492143 -360.91686873 118.65567122 -350.45065308 112.98144531 C-338.89029844 106.7140354 -327.31321151 100.47796287 -315.73287964 94.24755859 C-310.30478759 91.32678964 -304.87775853 88.40404694 -299.45065308 85.48144531 C-292.9277488 81.96873475 -286.40461539 78.45645355 -279.88034058 74.94628906 C-268.41993011 68.77949676 -256.96651192 62.60021621 -245.52658081 56.39550781 C-240.16106348 53.48672268 -234.79129243 50.58603431 -229.41549683 47.69628906 C-228.82725128 47.37999542 -228.23900574 47.06370178 -227.63293457 46.73782349 C-224.78573739 45.20709606 -221.93796333 43.67745809 -219.08932495 42.14941406 C-218.06258667 41.59769531 -217.03584839 41.04597656 -215.97799683 40.47753906 C-214.52755981 39.70579346 -214.52755981 39.70579346 -213.04782104 38.91845703 C-210.85250802 37.70379145 -208.79641115 36.39563054 -206.70455933 35.01660156 C-202.13957207 32.86289209 -198.17768434 33.66123554 -193.47944641 35.07432556 C-191.41534453 35.817419 -189.38470522 36.61875502 -187.35299683 37.44628906 C-186.19516693 37.90427132 -186.19516693 37.90427132 -185.01394653 38.37150574 C-183.34271101 39.03354122 -181.67308859 39.69966056 -180.00494385 40.3694458 C-177.34718144 41.43537754 -174.68460399 42.48830135 -172.02023315 43.53759766 C-168.19690982 45.0437687 -164.37488224 46.55313833 -160.5541687 48.06591797 C-150.97374915 51.85792486 -141.39144944 55.64400213 -131.7878418 59.37698364 C-129.69004719 60.1958449 -127.59454678 61.02060832 -125.50140381 61.85128784 C-122.56662365 63.01560853 -119.62502094 64.16072912 -116.68112183 65.30175781 C-115.8037738 65.65505661 -114.92642578 66.00835541 -114.02249146 66.37236023 C-113.21269836 66.68180069 -112.40290527 66.99124115 -111.568573 67.31005859 C-110.51496834 67.72398361 -110.51496834 67.72398361 -109.44007874 68.14627075 C-106.79803537 68.59139707 -105.67802337 67.9015989 -103.45065308 66.48144531 C-101.83563544 65.01768258 -100.27279833 63.49553596 -98.74752808 61.93847656 C-97.39981323 60.57432617 -97.39981323 60.57432617 -96.02487183 59.18261719 C-95.08308377 58.2201 -94.14167952 57.25720712 -93.20065308 56.29394531 C-87.75238845 50.74223263 -82.32991966 45.27854368 -76.41647339 40.22241211 C-72.58293002 36.82735526 -69.03931749 33.13134974 -65.45065308 29.48144531 C-61.19093425 25.14903504 -56.96079437 20.85747854 -52.33346558 16.91503906 C-49.62831962 14.59834832 -47.22605453 12.196583 -44.88034058 9.51660156 C-44.29252808 8.86240234 -43.70471558 8.20820313 -43.09909058 7.53417969 C-41.91335288 6.20348947 -40.75420474 4.84863948 -39.62252808 3.47167969 C-30.77235718 -6.11600545 -11.95082242 -1.0455296 0 0 Z " fill="#0AB5D7" transform="translate(1336.4506530761719,1.5185546875)"/>
<path d="M0 0 C1.94244627 0.1654984 3.88493714 0.33047401 5.82746804 0.49497604 C11.13223963 0.94571421 16.43635345 1.40380928 21.74038482 1.8631649 C27.47261119 2.35828553 33.20542628 2.84650034 38.93817139 3.33557129 C48.85953661 4.18292502 58.78052192 5.03461398 68.70125961 5.88928223 C83.0448294 7.12496962 97.38895808 8.35406502 111.73322989 9.58157301 C135.00811029 11.57349529 158.28253352 13.57070804 181.55667114 15.57128906 C204.1599473 17.51419192 226.76343656 19.45458579 249.36721802 21.39160156 C250.06459482 21.4513638 250.76197162 21.51112604 251.48048105 21.57269925 C258.48415357 22.17288152 265.48783045 22.77301299 272.49151051 23.37310724 C286.75740675 24.59544898 301.02327393 25.81812972 315.28912354 27.04101562 C317.25421325 27.20946511 317.25421325 27.20946511 319.25900175 27.38131762 C362.35625997 31.07580811 405.45284853 34.77810327 448.54934692 38.48144531 C449.3409938 40.21048363 450.13125316 41.94015726 450.92094421 43.67008972 C451.58128583 45.1148029 451.58128583 45.1148029 452.25496769 46.5887022 C454.17343419 50.87618659 455.91401625 55.22667713 457.63919067 59.59472656 C458.20463844 61.01563095 458.20463844 61.01563095 458.7815094 62.46524048 C459.5941345 64.50732951 460.40569413 66.54984281 461.21627808 68.59274292 C463.42591836 74.1599389 465.6451928 79.72328494 467.86575317 85.28613281 C468.32868774 86.44586105 468.79162231 87.60558929 469.26858521 88.80046082 C474.42461111 101.6987927 479.67172611 114.5597194 484.92434692 127.41894531 C490.86366191 141.96427689 496.79534291 156.51150635 502.61184692 171.10644531 C510.98946593 192.12679201 519.47859468 213.1020251 527.9614563 234.08007812 C530.01490794 239.15863235 532.06645009 244.23795451 534.11709595 249.31764221 C543.0874008 271.55906043 543.0874008 271.55906043 552.20462036 293.74047852 C552.45073059 294.33324585 552.69684082 294.92601318 552.95040894 295.53674316 C553.67278343 297.27618883 554.3959836 299.0152916 555.11947632 300.75427246 C558.52046258 308.94790825 561.8440178 317.16978052 565.12747192 325.41113281 C566.18716865 328.06632289 567.24769378 330.72118168 568.30838013 333.37597656 C568.57739167 334.04940535 568.84640322 334.72283413 569.12356663 335.41666985 C571.93893069 342.46163411 574.7715009 349.49963233 577.60794067 356.53613281 C577.86188913 357.16617218 578.11583759 357.79621155 578.37748146 358.44534302 C579.96863013 362.39267076 581.56036267 366.33976288 583.15222168 370.2868042 C584.60133146 373.88019799 586.04994217 377.47379296 587.49856567 381.06738281 C587.79591173 381.80500477 588.09325779 382.54262672 588.39961433 383.30260086 C589.00671835 384.80863874 589.61382042 386.31467741 590.22092056 387.82071686 C591.14195432 390.10548849 592.06303801 392.39023998 592.98413086 394.67498779 C599.07064918 409.77277677 605.15231853 424.87251762 611.23345947 439.97247314 C614.27610666 447.52760706 617.31892822 455.08267075 620.36184692 462.63769531 C620.66219408 463.38340412 620.96254124 464.12911293 621.27198982 464.89741898 C627.86224168 481.25964794 634.45557221 497.62063577 641.04934692 513.98144531 C647.64306722 530.34211983 654.23633842 546.70297457 660.8265152 563.06507683 C661.73845036 565.32917622 662.65045438 567.59324787 663.56246948 569.85731506 C666.29399955 576.63856895 669.02498867 583.42003842 671.75333786 590.20257282 C673.25267881 593.92979399 674.75245621 597.65683941 676.25247192 601.38378906 C676.54932137 602.12136381 676.84617081 602.85893856 677.15201569 603.61886406 C681.53872025 614.5158055 685.95055463 625.40235099 690.37530518 636.28389359 C692.27455209 640.95702448 694.16972694 645.63180846 696.0647583 650.30665016 C697.86168497 654.73802076 699.6654308 659.16653279 701.47439194 663.59300327 C702.58433807 666.31365077 703.68774852 669.03691331 704.78937531 671.76093864 C705.54077974 673.61321573 706.30015193 675.46225436 707.05978394 677.31117249 C711.56426858 688.48434971 711.56426858 688.48434971 711.54934692 693.48144531 C710.3052063 695.61791992 710.3052063 695.61791992 708.39309692 697.38378906 C707.6995813 698.04701172 707.00606567 698.71023438 706.29153442 699.39355469 C705.55161255 700.06193359 704.81169067 700.7303125 704.04934692 701.41894531 C702.61982553 702.75879673 701.19272799 704.10123904 699.76809692 705.44628906 C699.05524536 706.1138623 698.3423938 706.78143555 697.60794067 707.46923828 C695.02962914 709.98945218 692.71333327 712.683002 690.37161255 715.42114258 C686.23280388 720.10059145 681.67368389 724.39275159 677.22122192 728.77050781 C673.71841765 732.23756918 670.29170971 735.70949133 667.08059692 739.45019531 C662.23638663 745.08689162 656.8700362 750.20531669 651.57669067 755.41503906 C647.9459552 759.01080758 644.37877336 762.60291487 641.04934692 766.48144531 C636.21802306 772.10957288 630.85937314 777.2158113 625.57669067 782.41503906 C621.31462312 786.63605942 617.24276134 790.92112922 613.3364563 795.47167969 C609.19878529 800.12486381 604.6592646 804.40692894 600.22122192 808.77050781 C596.71841765 812.23756918 593.29170971 815.70949133 590.08059692 819.45019531 C585.23638663 825.08689162 579.8700362 830.20531669 574.57669067 835.41503906 C570.9459552 839.01080758 567.37877336 842.60291487 564.04934692 846.48144531 C559.21802306 852.10957288 553.85937314 857.2158113 548.57669067 862.41503906 C544.31462312 866.63605942 540.24276134 870.92112922 536.3364563 875.47167969 C532.19878529 880.12486381 527.6592646 884.40692894 523.22122192 888.77050781 C519.72306788 892.23296641 516.30241868 895.69881059 513.10012817 899.43847656 C508.14718051 905.20572482 502.60219343 910.40262656 497.13723755 915.67871094 C496.31803833 916.48373047 495.49883911 917.28875 494.65481567 918.11816406 C493.54336182 919.19650513 493.54336182 919.19650513 492.40945435 920.29663086 C490.36177539 922.70176001 489.27856751 924.40251397 488.54934692 927.48144531 C489.26532133 930.09357863 489.26532133 930.09357863 490.77590942 932.66503906 C491.30684204 933.66317627 491.83777466 934.66131348 492.38479614 935.68969727 C492.9753479 936.75534912 493.56589966 937.82100098 494.17434692 938.91894531 C494.77392212 940.03422607 495.37349731 941.14950684 495.99124146 942.29858398 C497.82650618 945.70268845 499.68566158 949.09283513 501.54934692 952.48144531 C502.55573449 954.33236712 503.56102568 956.18388568 504.56497192 958.03613281 C506.49883324 961.59703457 508.44300805 965.15206346 510.39309692 968.70410156 C513.94669211 975.19008922 517.43710319 981.7096166 520.92434692 988.23144531 C522.20161557 990.61950632 523.47897263 993.00752003 524.75637817 995.39550781 C525.23087151 996.28261192 525.23087151 996.28261192 525.71495056 997.18763733 C529.00306055 1003.33308929 532.30607875 1009.47047887 535.61184692 1015.60644531 C536.47205444 1017.20311035 536.47205444 1017.20311035 537.34963989 1018.83203125 C538.50483498 1020.97595368 539.66010823 1023.11983399 540.81546021 1025.26367188 C543.72804957 1030.66889968 546.63858922 1036.07523099 549.54934692 1041.48144531 C550.71600389 1043.6481172 551.88267055 1045.81478387 553.04934692 1047.98144531 C597.38268026 1130.31477865 641.71601359 1212.64811198 686.04934692 1294.98144531 C686.62789429 1296.05563721 687.20644165 1297.1298291 687.80252075 1298.23657227 C688.95946364 1300.38568868 690.1155624 1302.53525976 691.27078247 1304.68530273 C694.00080002 1309.76382202 696.73921022 1314.83726138 699.50787354 1319.89480591 C700.49446727 1321.69795755 701.47836666 1323.50255307 702.4614563 1325.30761719 C703.70088198 1327.58138373 704.94543757 1329.85236371 706.1958313 1332.12011719 C706.75206177 1333.14298828 707.30829224 1334.16585938 707.88137817 1335.21972656 C708.37355835 1336.11731689 708.86573853 1337.01490723 709.37283325 1337.93969727 C710.54610136 1340.47443357 711.12701377 1342.7299371 711.54934692 1345.48144531 C710.68470825 1345.99416992 709.82006958 1346.50689453 708.92922974 1347.03515625 C689.21420121 1358.7162455 689.21420121 1358.7162455 669.54934692 1370.48144531 C660.19875324 1376.10795806 650.81224644 1381.67348352 641.42630005 1387.24072266 C633.45589192 1391.96877466 625.48993331 1396.70340281 617.54934692 1401.48144531 C608.19873774 1407.10793256 598.81224665 1412.6734834 589.42630005 1418.24072266 C581.45589192 1422.96877466 573.48993331 1427.70340281 565.54934692 1432.48144531 C556.19873774 1438.10793256 546.81224665 1443.6734834 537.42630005 1449.24072266 C529.45589192 1453.96877466 521.48993331 1458.70340281 513.54934692 1463.48144531 C504.19873774 1469.10793256 494.81224665 1474.6734834 485.42630005 1480.24072266 C477.45589192 1484.96877466 469.48993331 1489.70340281 461.54934692 1494.48144531 C452.19873774 1500.10793256 442.81224665 1505.6734834 433.42630005 1511.24072266 C425.45589192 1515.96877466 417.48993331 1520.70340281 409.54934692 1525.48144531 C400.20041561 1531.10692295 390.81566522 1536.67157409 381.43133545 1542.23770142 C373.35468771 1547.02861961 365.28357404 1551.82786625 357.23684692 1556.66894531 C349.74466151 1561.1728246 342.24077594 1565.65685856 334.72601318 1570.12295532 C333.48904459 1570.85849449 332.25252856 1571.59479531 331.01647949 1572.33187866 C329.29562069 1573.35780614 327.57291689 1574.38063696 325.85012817 1575.40332031 C324.35219727 1576.29422363 324.35219727 1576.29422363 322.82400513 1577.203125 C320.54934692 1578.48144531 320.54934692 1578.48144531 319.54934692 1578.48144531 C319.54934692 1186.44144531 319.54934692 794.40144531 319.54934692 390.48144531 C69.07934692 390.48144531 -181.39065308 390.48144531 -439.45065308 390.48144531 C-433.90487843 383.82651574 -433.90487843 383.82651574 -430.88815308 381.35644531 C-427.33285655 378.32143609 -423.99382158 375.10834295 -420.70065308 371.79394531 C-420.19364868 371.28371826 -419.68664429 370.77349121 -419.16427612 370.24780273 C-417.59116763 368.66088423 -416.02047397 367.07161574 -414.45065308 365.48144531 C-402.68045381 353.55866939 -402.68045381 353.55866939 -396.34127808 348.14941406 C-392.70386861 344.9403772 -389.34794954 341.44062331 -385.95065308 337.98144531 C-381.26738084 333.21286757 -376.53098956 328.63168565 -371.46432495 324.27246094 C-367.79575754 321.00953531 -364.38952708 317.48295819 -360.95065308 313.98144531 C-356.90116844 309.85819957 -352.86706359 305.78132831 -348.48190308 302.01269531 C-343.89886647 298.06957139 -339.68725219 293.79034134 -335.45065308 289.48144531 C-330.59418961 284.54210705 -325.70043531 279.76993391 -320.44674683 275.25488281 C-316.78269819 271.99954411 -313.38360264 268.47692584 -309.95065308 264.98144531 C-305.26738084 260.21286757 -300.53098956 255.63168565 -295.46432495 251.27246094 C-291.79575754 248.00953531 -288.38952708 244.48295819 -284.95065308 240.98144531 C-280.26738084 236.21286757 -275.53098956 231.63168565 -270.46432495 227.27246094 C-266.79575754 224.00953531 -263.38952708 220.48295819 -259.95065308 216.98144531 C-255.90116844 212.85819957 -251.86706359 208.78132831 -247.48190308 205.01269531 C-242.89886647 201.06957139 -238.68725219 196.79034134 -234.45065308 192.48144531 C-229.59418961 187.54210705 -224.70043531 182.76993391 -219.44674683 178.25488281 C-215.78269819 174.99954411 -212.38360264 171.47692584 -208.95065308 167.98144531 C-204.26738084 163.21286757 -199.53098956 158.63168565 -194.46432495 154.27246094 C-190.79575754 151.00953531 -187.38952708 147.48295819 -183.95065308 143.98144531 C-179.90116844 139.85819957 -175.86706359 135.78132831 -171.48190308 132.01269531 C-166.89886647 128.06957139 -162.68725219 123.79034134 -158.45065308 119.48144531 C-153.59418961 114.54210705 -148.70043531 109.76993391 -143.44674683 105.25488281 C-139.78269819 101.99954411 -136.38360264 98.47692584 -132.95065308 94.98144531 C-131.52614752 93.53099248 -130.09907843 92.08305267 -128.66940308 90.63769531 C-127.74031128 89.69120117 -127.74031128 89.69120117 -126.79244995 88.72558594 C-124.80114349 86.81731977 -122.77045236 85.01435748 -120.68307495 83.21386719 C-116.43744063 79.52244956 -112.46561732 75.60733394 -108.51315308 71.60644531 C-107.78878052 70.87828613 -107.06440796 70.15012695 -106.31808472 69.39990234 C-104.02647004 67.09618885 -101.73814655 64.78925057 -99.45065308 62.48144531 C-96.43280227 59.43679752 -93.41151891 56.39561564 -90.38815308 53.35644531 C-89.7108313 52.6708252 -89.03350952 51.98520508 -88.33566284 51.27880859 C-84.43451153 47.35796178 -80.41764158 43.64806468 -76.22970581 40.03564453 C-74.06524444 38.14474827 -72.02738779 36.15601748 -70.01315308 34.10644531 C-69.2629187 33.34847656 -68.51268433 32.59050781 -67.73971558 31.80957031 C-66.98432495 31.04128906 -66.22893433 30.27300781 -65.45065308 29.48144531 C-61.19093425 25.14903504 -56.96079437 20.85747854 -52.33346558 16.91503906 C-49.62831962 14.59834832 -47.22605453 12.196583 -44.88034058 9.51660156 C-44.29252808 8.86240234 -43.70471558 8.20820313 -43.09909058 7.53417969 C-41.91335288 6.20348947 -40.75420474 4.84863948 -39.62252808 3.47167969 C-30.77235718 -6.11600545 -11.95082242 -1.0455296 0 0 Z " fill="#5BD4A3" transform="translate(1336.4506530761719,1.5185546875)"/>
<path d="M0 0 C39.6 0 79.2 0 120 0 C123.85739652 14.14378724 127.62533062 28.26966588 131.125 42.5 C133.59311573 52.53305294 136.10843642 62.52201042 138.99951172 72.44335938 C141.22448145 80.35291501 143.11318944 88.35344651 145.07275391 96.33203125 C146.92962901 103.8800462 148.79254967 111.41124464 150.96875 118.875 C153.83040487 128.71229277 156.19778964 138.67664594 158.64550781 148.62304688 C160.94494477 157.95338741 163.31360996 167.23397755 166.00390625 176.4609375 C168.22836672 184.3643147 170.11464249 192.35936279 172.07275391 200.33203125 C173.92962901 207.8800462 175.79254967 215.41124464 177.96875 222.875 C180.83040487 232.71229277 183.19778964 242.67664594 185.64550781 252.62304688 C187.99439388 262.15403526 190.39868138 271.64396339 193.14697266 281.06884766 C194.22136486 284.76064869 195.21096506 288.4686955 196.1875 292.1875 C197.0567477 295.49479702 197.91871274 298.75613822 199 302 C199.41958984 300.46859375 199.41958984 300.46859375 199.84765625 298.90625 C204.49157626 282.03057638 209.17660547 265.16688396 214.828125 248.59765625 C216.36484323 243.87993129 217.67798475 239.11478124 218.98486328 234.3293457 C222.53693175 221.3320666 226.11715831 208.30734227 230.5 195.5625 C233.07982943 188.02535128 235.15656375 180.36672539 237.26904297 172.6875 C239.2353639 165.59215481 241.35506867 158.56631053 243.625 151.5625 C245.94307966 144.40417338 248.10772203 137.23272419 250.08642578 129.97363281 C253.59895672 117.09340156 257.15732762 104.19053414 261.5 91.5625 C264.07982943 84.02535128 266.15656375 76.36672539 268.26904297 68.6875 C270.49204264 60.66594575 272.94526849 52.74163368 275.51293945 44.82470703 C277.3321452 39.18604111 279.00714348 33.52906351 280.5625 27.8125 C283.1452017 18.47504002 286.08262123 9.23836609 289 0 C318.04 0 347.08 0 377 0 C380.37547302 9.00126139 380.37547302 9.00126139 381.61328125 13.29296875 C381.88849609 14.24171875 382.16371094 15.19046875 382.44726562 16.16796875 C382.73279297 17.16441406 383.01832031 18.16085937 383.3125 19.1875 C383.76979492 20.76917969 383.76979492 20.76917969 384.23632812 22.3828125 C386.41617761 29.93297724 388.57360942 37.48962905 390.7253418 45.04785156 C392.96097195 52.89221996 395.24637757 60.72178293 397.53515625 68.55078125 C399.35306979 74.77208537 401.14830998 80.99915175 402.91796875 87.234375 C403.78406098 90.24850104 404.66316958 93.25781375 405.55078125 96.265625 C408.688496 106.91540323 411.71849182 117.58021504 414.5625 128.3125 C416.74470008 136.53878428 419.09749266 144.66421194 421.73510742 152.75488281 C423.84167891 159.30002885 425.62270021 165.91476179 427.375 172.5625 C429.71770148 181.44394162 432.24963854 190.23628213 435 199 C438.04021788 208.69096763 440.77030925 218.42875479 443.35546875 228.25 C445.675153 236.98292893 448.30272147 245.59781663 451.01074219 254.21704102 C453.78446928 263.11709295 456.24414721 272.08340723 458.56640625 281.11132812 C460.33696855 287.90139092 462.48564425 294.44863468 465 301 C465.22550537 300.13556274 465.22550537 300.13556274 465.45556641 299.25366211 C465.91300124 297.5001619 466.37043976 295.74666264 466.82788086 293.99316406 C467.36778356 291.92350949 467.90765904 289.85384782 468.44750977 287.78417969 C469.79381604 282.62288542 471.14042906 277.46167204 472.48828125 272.30078125 C476.04379656 258.68429683 479.57969653 245.06278258 483.10888672 231.43945312 C484.86250171 224.6709797 486.61767274 217.90290963 488.37255859 211.13476562 C489.8439451 205.45977017 491.31494218 199.78467432 492.78515625 194.109375 C495.75810451 182.63483784 498.73800612 171.16218574 501.73291016 159.69335938 C504.53837682 148.94555178 507.32327772 138.19242114 510.10888672 127.43945312 C511.86250171 120.6709797 513.61767274 113.90290963 515.37255859 107.13476562 C516.8439451 101.45977017 518.31494218 95.78467432 519.78515625 90.109375 C522.75641106 78.64137397 525.73235422 67.17465703 528.72851562 55.71313477 C530.07888958 50.54401429 531.42100044 45.37287337 532.75390625 40.19921875 C538.04987725 19.65479965 538.04987725 19.65479965 540.875 9.4375 C541.07810791 8.69975342 541.28121582 7.96200684 541.49047852 7.2019043 C542.87445452 2.25109096 542.87445452 2.25109096 544 0 C584.26 0 624.52 0 666 0 C664.87487117 7.8759018 664.87487117 7.8759018 663.79296875 11.67797852 C663.41748901 13.00961281 663.41748901 13.00961281 663.03442383 14.3681488 C662.61519653 15.82753624 662.61519653 15.82753624 662.1875 17.31640625 C661.88545654 18.38145889 661.58341309 19.44651154 661.2722168 20.5438385 C660.38774532 23.65677111 659.49865357 26.76834273 658.6072998 29.87931061 C657.96666337 32.11641144 657.32741054 34.35390405 656.68847656 36.5914917 C654.19469394 45.32449257 651.69656928 54.05624638 649.1953125 62.78710938 C648.93312927 63.70228521 648.67094604 64.61746105 648.40081787 65.56036949 C647.06718254 70.21487878 645.73282179 74.86917882 644.39746094 79.52319336 C642.82533474 85.003132 641.25529039 90.48366306 639.6875 95.96484375 C639.43522141 96.8467828 639.18294281 97.72872185 638.92301941 98.63738632 C635.57302105 110.36019619 632.28853456 122.09588758 629.18530273 133.88694763 C627.4461583 140.47572117 625.52197444 146.9926874 623.5 153.5 C620.68828044 162.5790395 618.13040661 171.70281914 615.74804688 180.90429688 C613.99466244 187.58825108 612.03659053 194.19148559 610 200.79296875 C605.08935363 216.7592214 600.581914 232.84261467 596.02978516 248.91381836 C594.75854421 253.4018887 593.48377496 257.88894769 592.20798492 262.3757267 C585.04866087 287.55182524 585.04866087 287.55182524 578.21081543 312.81672668 C576.4606468 319.42797499 574.52889954 325.96914434 572.5 332.5 C569.68833018 341.57905664 567.13040739 350.70281613 564.74804688 359.90429688 C562.99466244 366.58825108 561.03659053 373.19148559 559 379.79296875 C554.08935363 395.7592214 549.581914 411.84261467 545.02978516 427.91381836 C543.75852621 432.40195222 542.48373833 436.88907455 541.20793152 441.37591743 C536.79239891 456.90890517 532.38376634 472.44062795 528.21875 488.04296875 C524.97982628 500.07494146 521.48888308 512.03811515 518 524 C485 524 452 524 418 524 C416.1960494 517.98683134 414.41217245 511.98803777 412.75 505.9375 C412.31798214 504.37362225 411.88567321 502.80982489 411.453125 501.24609375 C411.22173828 500.40933105 410.99035156 499.57256836 410.75195312 498.71044922 C409.3445829 493.63751928 407.9212385 488.56905841 406.5 483.5 C403.45551669 472.63572613 400.43032301 461.766232 397.41601562 450.89355469 C394.48899682 440.33781078 391.54227975 429.78769683 388.58642578 419.23999023 C386.68648035 412.45808289 384.7958459 405.6736842 382.9140625 398.88671875 C381.12010174 392.42147054 379.31050586 385.96063196 377.5 379.5 C374.45567074 368.63568273 371.43032314 357.76623245 368.41601562 346.89355469 C365.48899682 336.33781078 362.54227975 325.78769683 359.58642578 315.23999023 C357.68648035 308.45808289 355.7958459 301.6736842 353.9140625 294.88671875 C352.12010174 288.42147054 350.31050586 281.96063196 348.5 275.5 C346.45146964 268.18939662 344.40591193 260.87801911 342.375 253.5625 C342.0804895 252.50240723 342.0804895 252.50240723 341.7800293 251.42089844 C340.73316181 247.65026499 339.69078105 243.87843287 338.65234375 240.10546875 C338.42820801 239.29327881 338.20407227 238.48108887 337.97314453 237.64428711 C337.54700758 236.09989498 337.12211007 234.55516007 336.69873047 233.01000977 C335.58064709 228.96243602 334.36785481 224.97240026 333 221 C332.67128906 222.15628906 332.34257813 223.31257812 332.00390625 224.50390625 C328.8689581 235.51225866 325.69627051 246.50932423 322.5 257.5 C319.98118541 266.16134451 317.46882603 274.82423846 315 283.5 C312.33734282 292.8569083 309.62329001 302.19867848 306.90673828 311.54003906 C304.58601963 319.52146848 302.27499375 327.50538918 300 335.5 C297.33734282 344.8569083 294.62329001 354.19867848 291.90673828 363.54003906 C289.58601963 371.52146848 287.27499375 379.50538918 285 387.5 C282.33734282 396.8569083 279.62329001 406.19867848 276.90673828 415.54003906 C274.58601963 423.52146848 272.27499375 431.50538918 270 439.5 C267.72476841 447.4954466 265.41344131 455.48018163 263.09243774 463.46243286 C257.23681801 483.60162634 251.51922886 503.76282752 246 524 C213.99 524 181.98 524 149 524 C141.07219828 499.08405172 141.07219828 499.08405172 138.5 489.0625 C136.09374923 479.9067431 133.47201975 470.8497797 130.66455078 461.80990601 C128.66894991 455.32831497 126.85047026 448.81961218 125.125 442.26171875 C120.08519277 423.34913539 114.67756895 404.53826083 109.32080078 385.71362305 C107.80225255 380.37694956 106.28728279 375.03926784 104.77332306 369.70129108 C103.58393865 365.50943822 102.39249274 361.31817328 101.20048523 357.12706566 C100.6418146 355.1617994 100.08377059 353.19635486 99.52644348 351.23070717 C96.24899357 339.67591273 92.87073104 328.15846521 89.33913422 316.67852497 C87.23208891 309.82234937 85.29790564 302.94419901 83.5 296 C81.11572204 286.96441566 78.51696546 278.02702837 75.73912048 269.10560608 C73.45562979 261.68350863 71.43283346 254.21125659 69.46875 246.69921875 C64.78237334 228.92407355 59.72600456 211.25645367 54.66033936 193.58642578 C53.69293816 190.20856763 52.72900994 186.82972237 51.76501274 183.45089149 C47.35255813 167.98990344 42.91793938 152.54188113 38.18565369 137.17506409 C36.13083903 130.48939266 34.25316024 123.77137514 32.5 117 C30.35198132 108.85975619 28.06707358 100.78753928 25.5625 92.75 C22.60695229 83.23174648 20.01196701 73.6452358 17.49047852 64.00390625 C13.44247998 48.62296541 8.98701627 33.35541383 4.57202148 18.07666016 C4.27025497 17.02888397 3.96848846 15.98110779 3.65757751 14.90158081 C3.08411281 12.91077528 2.50840556 10.92061403 1.93019104 8.93118286 C1.67543503 8.04607025 1.42067902 7.16095764 1.15820312 6.24902344 C0.93362427 5.47347107 0.70904541 4.6979187 0.47766113 3.89886475 C0 2 0 2 0 0 Z " fill="#FEFEFE" transform="translate(486,556)"/>
<path d="M0 0 C-1.67209313 5.07293918 -4.63553768 9.15656041 -7.625 13.5234375 C-8.19598923 14.3660614 -8.76697845 15.2086853 -9.35527039 16.07684326 C-11.2326208 18.84579035 -13.1162877 21.61037789 -15 24.375 C-17.63376416 28.2536815 -20.26430259 32.13454538 -22.89453125 36.015625 C-23.56498978 37.00406403 -24.2354483 37.99250305 -24.92622375 39.01089478 C-29.53357136 45.81098329 -34.09916304 52.63754418 -38.63671875 59.484375 C-39.23686798 60.38922638 -39.83701721 61.29407776 -40.45535278 62.22634888 C-42.77057343 65.71840096 -45.08499039 69.21093756 -47.39086914 72.70916748 C-48.9689565 75.10296403 -50.55236226 77.49316257 -52.13671875 79.8828125 C-52.83627937 80.95000519 -52.83627937 80.95000519 -53.54997253 82.03875732 C-56.7729817 86.88649085 -56.7729817 86.88649085 -59 88 C-60.91333008 87.01879883 -60.91333008 87.01879883 -63.26953125 85.45703125 C-64.14730225 84.88380127 -65.02507324 84.31057129 -65.92944336 83.7199707 C-66.88085205 83.09050537 -67.83226074 82.46104004 -68.8125 81.8125 C-106.89048662 57.15149356 -147.38825154 36.83276884 -193.5625 36.5625 C-194.28384125 36.55587341 -195.0051825 36.54924683 -195.74838257 36.54241943 C-213.84622054 36.44378799 -233.42354534 40.42046322 -247.22265625 53.03125 C-257.93199465 64.40116441 -259.58953173 75.65146921 -259.33203125 90.67578125 C-258.88481132 101.12379592 -254.9982969 109.26597056 -247.6640625 116.671875 C-232.20943867 130.1776753 -211.38471718 137.13950411 -192 143 C-190.74316406 143.38285156 -189.48632812 143.76570312 -188.19140625 144.16015625 C-180.91064327 146.34820357 -173.59184217 148.39869726 -166.26806641 150.43725586 C-33.02183429 187.54209834 -33.02183429 187.54209834 -1 243 C6.00295659 255.94209033 10.37107725 269.54092489 13 284 C13.17063965 284.91249512 13.3412793 285.82499023 13.51708984 286.76513672 C15.04106067 295.59652717 15.39654481 304.31129838 15.375 313.25 C15.37567978 314.35435394 15.37567978 314.35435394 15.37637329 315.48101807 C15.29739075 359.49151791 0.64080222 400.2338263 -30.56054688 431.59960938 C-69.99476843 469.9637028 -127.89472479 480.89720154 -180.8515625 480.34765625 C-257.22121417 479.08719631 -331.0439074 446.32993747 -389 398 C-389.58845703 397.51015625 -390.17691406 397.0203125 -390.78320312 396.515625 C-392.18947331 395.34455556 -393.59484105 394.17240256 -395 393 C-390.95582081 387.42559084 -386.64141683 382.16049042 -382.17504883 376.92553711 C-378.68094591 372.82391859 -375.28713482 368.65440375 -371.9375 364.43359375 C-365.45553056 356.29192649 -358.78105753 348.30130446 -352.16259766 340.27050781 C-348.84971974 336.24984201 -345.54420057 332.22347978 -342.25 328.1875 C-337.54143799 322.42372353 -332.77336835 316.71010452 -328 311 C-324.95894221 312.41034564 -322.41756343 314.08455205 -319.76171875 316.125 C-318.94968994 316.7439917 -318.13766113 317.3629834 -317.30102539 318.00073242 C-316.43856201 318.66049072 -315.57609863 319.32024902 -314.6875 320 C-294.80135343 335.02568329 -273.87256276 347.98029728 -251 358 C-249.81921875 358.53109375 -248.6384375 359.0621875 -247.421875 359.609375 C-236.30092042 364.36150097 -224.75871644 367.28405557 -213 370 C-212.10345703 370.21462891 -211.20691406 370.42925781 -210.28320312 370.65039062 C-180.14049941 377.66809326 -144.31635083 377.78789313 -117.21875 361.30859375 C-108.22404211 354.84739525 -102.6368186 344.92393639 -100.41015625 334.14453125 C-98.75118096 321.42572068 -99.28836262 308.91116883 -106.6875 298.125 C-110.33352676 293.50625829 -114.02286225 290.10194853 -119 287 C-120.22203125 286.19175781 -120.22203125 286.19175781 -121.46875 285.3671875 C-130.73861641 279.56050152 -140.78594991 275.8012316 -151 272 C-151.93521484 271.64679688 -152.87042969 271.29359375 -153.83398438 270.9296875 C-171.61291795 264.27306321 -189.75192754 259.45577854 -208.12539673 254.77854919 C-222.16890313 251.18591278 -236.13867203 247.24150904 -250 243 C-250.69496582 242.78794922 -251.38993164 242.57589844 -252.10595703 242.35742188 C-282.97204274 232.81634809 -313.4392476 219.56586458 -337 197 C-337.86625 196.175 -338.7325 195.35 -339.625 194.5 C-340.800625 193.2625 -340.800625 193.2625 -342 192 C-342.59167969 191.3915625 -343.18335938 190.783125 -343.79296875 190.15625 C-368.50013174 163.77645509 -374.19609681 127.89797228 -374.375 93.25 C-374.3830365 92.37735504 -374.391073 91.50471008 -374.39935303 90.60562134 C-374.48217998 78.73250356 -373.50081104 67.60803441 -371 56 C-370.80664062 55.07106934 -370.61328125 54.14213867 -370.4140625 53.18505859 C-362.36132828 16.47094799 -338.99473751 -16.0786537 -307.4140625 -36.33203125 C-226.23832132 -86.96110218 -112.69955818 -72.87736032 0 0 Z " fill="#FEFEFE" transform="translate(1527,611)"/>
<path d="M0 0 C238.26 0 476.52 0 722 0 C718.049514 3.1603888 714.19606957 5.80054372 709.86328125 8.3359375 C708.8440583 8.93869003 708.8440583 8.93869003 707.804245 9.55361938 C705.64244792 10.83104282 703.47758312 12.10315561 701.3125 13.375 C699.87804145 14.22099182 698.44379473 15.06734293 697.00976562 15.9140625 C694.91781208 17.14921971 692.82556534 18.38385125 690.73187256 19.61605835 C686.91137664 21.86524281 683.10727937 24.13856895 679.31640625 26.4375 C676.15112632 28.34269832 672.97977541 30.06931551 669.625 31.625 C662.52605239 35.12082936 655.83733166 39.2232796 649.078125 43.32421875 C642.44693323 47.34676712 635.77525588 51.30009288 629.10290527 55.2538147 C619.72161541 60.8131833 610.34372822 66.37765319 601 72 C591.64939082 77.62648725 582.26289973 83.19203809 572.87695312 88.75927734 C564.906545 93.48732934 556.94058639 98.2219575 549 103 C539.64939082 108.62648725 530.26289973 114.19203809 520.87695312 119.75927734 C512.906545 124.48732934 504.94058639 129.2219575 497 134 C487.64939082 139.62648725 478.26289973 145.19203809 468.87695312 150.75927734 C460.906545 155.48732934 452.94058639 160.2219575 445 165 C435.64939082 170.62648725 426.26289973 176.19203809 416.87695312 181.75927734 C408.906545 186.48732934 400.94058639 191.2219575 393 196 C387.13576505 199.52865172 381.26020192 203.03770797 375.375 206.53125 C374.69540726 206.9347467 374.01581451 207.33824341 373.31562805 207.75396729 C369.82058506 209.82837718 366.3239942 211.90011741 362.82495117 213.96777344 C356.74091442 217.56628196 350.67302429 221.17954871 344.67578125 224.921875 C343.29422852 225.77749023 343.29422852 225.77749023 341.88476562 226.65039062 C340.22334948 227.68357196 338.56908598 228.72838662 336.92382812 229.78710938 C331.81567525 232.95060352 331.81567525 232.95060352 328.484375 233.15234375 C324.60771004 231.35420513 321.34037195 228.87874607 317.9375 226.3125 C316.32268976 225.11963689 314.70676365 223.92828317 313.08984375 222.73828125 C312.25308105 222.12033691 311.41631836 221.50239258 310.55419922 220.86572266 C306.41632362 217.84319873 302.20826084 214.92331448 298 212 C291.59863387 207.54199386 285.24517601 203.02704297 278.9375 198.4375 C272.8005151 193.97411511 266.59108035 189.63677076 260.3125 185.375 C254.03471212 181.11339899 247.85904358 176.75074789 241.76611328 172.22949219 C235.79707113 167.81421028 229.70859128 163.57646036 223.61572266 159.33447266 C218.01271615 155.42695871 212.46051101 151.4571126 206.9375 147.4375 C200.80057489 142.97403537 194.59107745 138.6367688 188.3125 134.375 C182.03471212 130.11339899 175.85904358 125.75074789 169.76611328 121.22949219 C163.79707113 116.81421028 157.70859128 112.57646036 151.61572266 108.33447266 C146.01271615 104.42695871 140.46051101 100.4571126 134.9375 96.4375 C128.80057489 91.97403537 122.59107745 87.6367688 116.3125 83.375 C110.03471212 79.11339899 103.85904358 74.75074789 97.76611328 70.22949219 C92.63680855 66.43536143 87.42295677 62.77089881 82.1875 59.125 C75.7487956 54.64056422 69.34868475 50.11102414 63 45.5 C54.20914201 39.11875468 45.31174551 32.89572333 36.40332031 26.68017578 C32.01125737 23.60965798 27.63417836 20.51795745 23.25976562 17.42236328 C19.56888427 14.81077445 15.87146957 12.20918601 12.1640625 9.62109375 C11.37346436 9.06760254 10.58286621 8.51411133 9.76831055 7.94384766 C8.24038978 6.87444716 6.71066414 5.80761975 5.17895508 4.74365234 C3.43484035 3.52076492 1.71459178 2.26394813 0 1 C0 0.67 0 0.34 0 0 Z " fill="#00CCD7" transform="translate(806,1656)"/>
<path d="M0 0 C156.42 0 312.84 0 474 0 C474 26.07 474 52.14 474 79 C317.58 79 161.16 79 0 79 C0 52.93 0 26.86 0 0 Z " fill="#FEFEFE" transform="translate(512,1419)"/>
</svg>
